<svg width="410" height="258" viewBox="0 0 410 258" fill="none" xmlns="http://www.w3.org/2000/svg">
    <path d="M303.681 169.064H194.137V221.617H303.681V169.064Z" fill="#FBB03B"/>
    <path d="M232.107 212.918H224.816L210.631 189.674V212.918H203.34V177.582H210.631L224.816 200.863V177.582H232.07V212.918H232.107Z" fill="white"/>
    <path d="M236.367 199.563C236.367 196.965 236.873 194.655 237.883 192.597C238.894 190.576 240.338 188.988 242.214 187.869C244.091 186.75 246.293 186.209 248.783 186.209C252.321 186.209 255.208 187.291 257.446 189.457C259.684 191.623 260.947 194.582 261.2 198.3L261.236 200.105C261.236 204.147 260.117 207.36 257.879 209.814C255.641 212.232 252.609 213.459 248.82 213.459C245.03 213.459 241.998 212.232 239.76 209.814C237.486 207.396 236.367 204.075 236.367 199.924V199.563ZM243.369 200.069C243.369 202.559 243.839 204.472 244.777 205.808C245.715 207.143 247.051 207.793 248.82 207.793C250.516 207.793 251.851 207.143 252.79 205.844C253.728 204.544 254.234 202.451 254.234 199.599C254.234 197.145 253.764 195.268 252.79 193.897C251.851 192.561 250.48 191.875 248.747 191.875C247.051 191.875 245.715 192.561 244.777 193.897C243.839 195.196 243.369 197.253 243.369 200.069Z" fill="white"/>
    <path d="M286.754 203.389L290.183 186.678H296.969L290.255 212.918H284.372L279.427 196.423L274.446 212.954H268.599L261.922 186.678H268.707L272.136 203.353L276.937 186.678H281.99L286.754 203.389Z" fill="white"/>
    <path d="M199.907 100.45V112.866H192.652V77.6025H206.404C209.039 77.6025 211.385 78.0717 213.406 79.0463C215.427 80.0208 216.98 81.3924 218.026 83.161C219.109 84.9295 219.65 86.9869 219.65 89.2608C219.65 92.7258 218.459 95.4328 216.113 97.418C213.731 99.4031 210.483 100.414 206.296 100.414H199.907V100.45ZM199.907 94.5666H206.404C208.317 94.5666 209.797 94.0974 210.807 93.195C211.818 92.2927 212.323 90.9933 212.323 89.333C212.323 87.6005 211.818 86.1928 210.807 85.1461C209.797 84.0633 208.389 83.5219 206.585 83.4858H199.907V94.5666Z" fill="#444444"/>
    <path d="M237.554 93.2311C236.616 93.0867 235.75 93.0506 235.028 93.0506C232.393 93.0506 230.66 93.953 229.83 95.7216V112.866H222.828V86.662H229.433L229.614 89.8022C231.021 87.3839 232.97 86.1928 235.461 86.1928C236.219 86.1928 236.977 86.3011 237.627 86.5177L237.554 93.2311Z" fill="#444444"/>
    <path d="M239.07 99.5475C239.07 96.9487 239.576 94.6388 240.586 92.5814C241.597 90.5602 243.041 88.972 244.918 87.8531C246.794 86.7342 248.996 86.1928 251.487 86.1928C255.024 86.1928 257.911 87.2756 260.149 89.4412C262.387 91.6069 263.65 94.5305 263.903 98.2481L263.939 100.053C263.939 104.059 262.82 107.308 260.582 109.726C258.344 112.144 255.313 113.371 251.559 113.371C247.769 113.371 244.773 112.144 242.499 109.726C240.261 107.308 239.106 104.023 239.106 99.8363V99.5475H239.07ZM246.073 100.017C246.073 102.507 246.542 104.42 247.48 105.72C248.419 107.055 249.754 107.705 251.487 107.705C253.183 107.705 254.518 107.055 255.457 105.756C256.395 104.456 256.901 102.363 256.901 99.5114C256.901 97.057 256.431 95.1802 255.457 93.8447C254.518 92.5092 253.147 91.8234 251.45 91.8234C249.754 91.8234 248.419 92.4731 247.48 93.8086C246.542 95.1802 246.073 97.2375 246.073 100.017Z" fill="#444444"/>
    <path d="M275.707 80.2374V86.6621H280.183V91.7873H275.707V104.853C275.707 105.828 275.887 106.514 276.248 106.947C276.609 107.38 277.331 107.56 278.378 107.56C279.136 107.56 279.822 107.488 280.435 107.38V112.686C279.064 113.119 277.656 113.299 276.212 113.299C271.304 113.299 268.813 110.809 268.705 105.864V91.7513H264.879V86.6259H268.705V80.2013H275.707V80.2374Z" fill="#444444"/>
    <path d="M294.798 113.371C290.972 113.371 287.832 112.18 285.414 109.834C282.996 107.488 281.805 104.348 281.805 100.414V99.728C281.805 97.0931 282.31 94.7471 283.321 92.6536C284.331 90.5963 285.775 88.9721 287.652 87.8531C289.529 86.7342 291.658 86.1567 294.04 86.1567C297.614 86.1567 300.429 87.2757 302.523 89.5496C304.58 91.8235 305.627 94.9997 305.627 99.1505V102.002H288.951C289.168 103.698 289.854 105.07 291.009 106.117C292.164 107.163 293.571 107.669 295.34 107.669C298.047 107.669 300.14 106.694 301.656 104.745L305.085 108.607C304.038 110.087 302.631 111.242 300.826 112.072C298.985 112.938 297 113.371 294.798 113.371ZM294.004 91.8235C292.633 91.8235 291.478 92.2927 290.612 93.2311C289.745 94.1695 289.204 95.505 288.951 97.2736H298.697V96.6961C298.66 95.1441 298.227 93.953 297.433 93.0867C296.639 92.2566 295.484 91.8235 294.004 91.8235Z" fill="#444444"/>
    <path d="M319.921 107.705C321.22 107.705 322.267 107.344 323.061 106.622C323.855 105.9 324.288 104.962 324.324 103.807H330.893C330.893 105.575 330.388 107.199 329.449 108.679C328.511 110.159 327.175 111.314 325.551 112.108C323.891 112.938 322.05 113.335 320.065 113.335C316.311 113.335 313.352 112.144 311.186 109.762C309.02 107.38 307.938 104.095 307.938 99.9084V99.4392C307.938 95.3967 309.02 92.1844 311.15 89.7661C313.279 87.3478 316.239 86.1567 319.993 86.1567C323.277 86.1567 325.912 87.0952 327.861 88.972C329.846 90.8489 330.857 93.3033 330.893 96.4074H324.324C324.288 95.0358 323.855 93.953 323.061 93.0867C322.267 92.2205 321.184 91.8235 319.848 91.8235C318.224 91.8235 316.997 92.4009 316.167 93.592C315.337 94.7831 314.904 96.6961 314.904 99.367V100.089C314.904 102.796 315.301 104.745 316.131 105.9C316.997 107.127 318.26 107.705 319.921 107.705Z" fill="#444444"/>
    <path d="M343.02 80.2374V86.6621H347.495V91.7873H343.02V104.853C343.02 105.828 343.2 106.514 343.561 106.947C343.922 107.38 344.644 107.56 345.69 107.56C346.448 107.56 347.134 107.488 347.748 107.38V112.686C346.376 113.119 344.969 113.299 343.525 113.299C338.616 113.299 336.126 110.809 336.017 105.864V91.7513H332.191V86.6259H336.017V80.2013H343.02V80.2374Z" fill="#444444"/>
    <path d="M219.327 127.592V150.801C219.327 154.663 218.136 157.695 215.718 159.968C213.3 162.206 210.015 163.325 205.828 163.325C201.713 163.325 198.429 162.242 196.011 160.041C193.592 157.875 192.365 154.879 192.293 151.053V127.556H199.548V150.837C199.548 153.147 200.089 154.843 201.208 155.89C202.327 156.937 203.843 157.478 205.792 157.478C209.871 157.478 211.964 155.348 212 151.053V127.592H219.327Z" fill="#444444"/>
    <path d="M233.873 152.353L231.346 154.879V162.856H224.344V125.679H231.346V146.289L232.718 144.556L239.431 136.688H247.841L238.384 147.624L248.671 162.892H240.622L233.873 152.353Z" fill="#444444"/>
    <path d="M265.273 143.221C264.335 143.077 263.468 143.04 262.747 143.04C260.112 143.04 258.379 143.943 257.549 145.711V162.856H250.547V136.652H257.152L257.332 139.792C258.74 137.374 260.689 136.183 263.18 136.183C263.938 136.183 264.696 136.291 265.345 136.508L265.273 143.221Z" fill="#444444"/>
    <path d="M283.214 162.856C282.889 162.242 282.672 161.448 282.528 160.51C280.832 162.387 278.63 163.361 275.923 163.361C273.36 163.361 271.231 162.603 269.534 161.123C267.838 159.644 267.008 157.767 267.008 155.493C267.008 152.714 268.055 150.584 270.112 149.104C272.169 147.624 275.129 146.866 279.027 146.866H282.239V145.35C282.239 144.123 281.915 143.185 281.301 142.427C280.687 141.705 279.713 141.344 278.341 141.344C277.15 141.344 276.248 141.633 275.562 142.174C274.876 142.752 274.551 143.51 274.551 144.484H267.549C267.549 142.968 268.018 141.561 268.957 140.261C269.895 138.962 271.231 137.951 272.927 137.229C274.624 136.508 276.573 136.11 278.702 136.11C281.915 136.11 284.477 136.905 286.39 138.529C288.303 140.153 289.242 142.427 289.242 145.387V156.756C289.242 159.247 289.602 161.123 290.288 162.387V162.784H283.214V162.856ZM277.403 157.983C278.45 157.983 279.388 157.767 280.254 157.298C281.12 156.828 281.77 156.215 282.203 155.457V150.945H279.605C276.103 150.945 274.227 152.172 274.01 154.59L273.974 154.988C273.974 155.854 274.263 156.576 274.876 157.153C275.49 157.731 276.356 157.983 277.403 157.983Z" fill="#444444"/>
    <path d="M293.57 129.866C293.57 128.82 293.931 127.953 294.617 127.268C295.303 126.582 296.277 126.257 297.505 126.257C298.696 126.257 299.634 126.582 300.356 127.268C301.078 127.953 301.439 128.82 301.439 129.866C301.439 130.949 301.078 131.815 300.356 132.465C299.634 133.151 298.696 133.476 297.505 133.476C296.313 133.476 295.375 133.151 294.653 132.465C293.931 131.815 293.57 130.949 293.57 129.866ZM301.006 162.856H293.967V136.652H301.006V162.856Z" fill="#444444"/>
    <path d="M312.448 136.652L312.665 139.684C314.541 137.338 317.032 136.183 320.208 136.183C322.987 136.183 325.045 137.013 326.416 138.637C327.788 140.261 328.474 142.716 328.51 145.964V162.856H321.507V146.108C321.507 144.629 321.183 143.546 320.533 142.86C319.883 142.174 318.8 141.849 317.321 141.849C315.335 141.849 313.856 142.68 312.881 144.376V162.856H305.879V136.652H312.448Z" fill="#444444"/>
    <path d="M344.935 163.361C341.109 163.361 337.969 162.17 335.551 159.824C333.133 157.478 331.941 154.338 331.941 150.404V149.718C331.941 147.083 332.447 144.737 333.457 142.643C334.468 140.586 335.912 138.962 337.789 137.843C339.665 136.724 341.795 136.147 344.177 136.147C347.75 136.147 350.566 137.265 352.659 139.539C354.717 141.813 355.763 144.99 355.763 149.14V151.992H339.016C339.232 153.688 339.918 155.06 341.073 156.106C342.228 157.153 343.636 157.658 345.404 157.658C348.111 157.658 350.205 156.684 351.721 154.735L355.15 158.597C354.103 160.077 352.695 161.232 350.891 162.062C349.086 162.928 347.101 163.361 344.935 163.361ZM344.141 141.813C342.77 141.813 341.615 142.283 340.748 143.221C339.882 144.159 339.341 145.495 339.088 147.263H348.833V146.686C348.797 145.134 348.364 143.943 347.57 143.077C346.776 142.246 345.621 141.813 344.141 141.813Z" fill="#444444"/>
    <path d="M159.088 53.4919L158.222 57.1734L157.5 60.2775L138.587 48.2583L120.071 45.082L101.591 48.2583L82.678 60.2775L81.9561 57.1734L81.0898 53.4919L99.1006 40.4259L120.071 36.2391L141.078 40.4259L159.088 53.4919Z" fill="#FBB03B"/>
    <path d="M185.689 63.2372L184.209 56.7764L184.895 51.218L168.075 60.7467L161.109 66.6661L157.139 70.456L158.583 64.717L160.857 62.9124L161.218 59.0503L162.733 54.4664L161.326 52.5174L158.366 52.9505L155.803 59.4474L155.154 63.923L155.009 64.681L147.538 69.4814L138.695 79.1185L137.107 86.1567L128.047 90.488L127.867 90.6324L124.835 89.4413V85.7597L127.001 80.5261L127.362 72.8742L123.897 68.4708L120.071 67.785L116.281 68.4708L112.816 72.8742L113.177 80.5261L115.342 85.7597V89.4413L112.31 90.6324L112.13 90.488L103.07 86.1567L101.482 79.1185L92.6394 69.4814L85.168 64.681L85.0236 63.923L84.3739 59.4474L81.8113 52.9505L78.8516 52.5174L77.4439 54.4664L78.9598 59.0503L79.3208 62.9124L81.5947 64.717L83.0384 70.456L78.9959 67.0992L72.102 60.7467L55.2823 51.218L55.9681 56.7764L54.4883 63.2372V65.5111L58.8195 67.4602L57.9172 71.8636L64.5945 77.3138L66.5436 82.9805L75.6031 88.0336L87.1892 111.35L105.2 129.83L100.797 142.896L97.1511 195.773L107.618 219.379H120.071H132.559L143.026 195.773L139.381 142.896L134.941 129.83L152.988 111.35L164.574 88.0336L173.634 82.9805L175.583 77.3138L182.26 71.8636L181.358 67.4602L185.689 65.5111V63.2372Z" fill="#444444"/>
</svg>
