<svg xmlns="http://www.w3.org/2000/svg" viewBox="0 0 595.2 841.9" style="enable-background:new 0 0 595.2 841.9" xml:space="preserve"><style>.st0,.st1{fill-rule:evenodd;clip-rule:evenodd}.st1{fill:#fff}</style><switch><g><g id="Группа_1_1_"><path class="st0" d="M441.4 461c0-.3-62.3-.2-62.6-.2 0 0-11.8 48-48.7 49.8-65.4 3.1-93.5-15.3-93.5-15.4-3.1-13-35.6-6.6-35.6-6.3L190.3 505c0 .3.5 23.8.8 23.8l235.2.5c.3 0 22.7-13.7 22.7-14l-7.6-54.3z" id="Прямоугольник_x2C__скругл._углы_3"/><path class="st0" d="M343.1 464.8c0-.2-.2-.3-.4-.3h-32.1c-.2 0-.4.1-.4.3l-4 45.9c0 .2 4.2.7 4.4.7l46.7-15.9c.2 0 .4-.1.4-.3l-14.6-30.4z" id="Прямоугольник_x2C__скругл._углы_4"/><path class="st0" d="M325.9 393.2v-.8h-4.2v.8l-.5 121.3c0 .4.5 1.7.6 1.7l6.1-42v-.8l-2-80.2z" id="Прямоугольник_x2C__скругл._углы_4_1_"/><path class="st0" d="m246.2 485.5-43.1.1-1.4 15.6 55.9 15.5z" id="Прямоугольник_2"/><path class="st0" d="m217 392.4-37.3 90.1 29.5 13.7 36.8-92.1z" id="Прямоугольник_3"/><path class="st0" d="m354.6 501.6-143.9-.5.9 12.6 158-.9z" id="Прямоугольник_3_1_"/><path class="st0" d="m338.2 467.6-32.3 10.7-4 25.1 47.4-2.6z" id="Прямоугольник_3_2_"/><path class="st0" d="m336.9 471.1-.7 36.3 47.5-3.4 5.8-32.3z" id="Прямоугольник_3_3_"/><path class="st0" d="m280.8 511 8.2 24.2h44.6l7.9-23.8z" id="Прямоугольник_3_4_"/><path class="st0" d="m222.9 437.3 1 12 14.9 45.9 2-6.8z" id="Прямоугольник_3_5_"/><ellipse class="st1" cx="220.9" cy="537.2" rx="21" ry="21.1" id="Эллипс_1"/><ellipse class="st0" cx="220.9" cy="537.2" rx="16.7" ry="16.6" id="Эллипс_1_1_"/><ellipse class="st1" cx="264.6" cy="537.2" rx="21" ry="21.1" id="Эллипс_1_2_"/><ellipse class="st0" cx="264.7" cy="537.2" rx="16.7" ry="16.6" id="Эллипс_1_3_"/><ellipse class="st1" cx="357.7" cy="537.2" rx="21" ry="21.1" id="Эллипс_1_4_"/><ellipse class="st0" cx="357.7" cy="537.2" rx="16.7" ry="16.6" id="Эллипс_1_5_"/><ellipse class="st1" cx="401.8" cy="537.2" rx="21" ry="21.1" id="Эллипс_1_6_"/><ellipse class="st0" cx="401.9" cy="537.2" rx="16.7" ry="16.6" id="Эллипс_1_7_"/></g></g></switch></svg>