<svg width="80" height="61" viewBox="0 0 80 61" fill="none" xmlns="http://www.w3.org/2000/svg">
    <path d="M29.1667 58.5201C29.5833 58.5201 29.8214 58.5201 30.119 58.5201C31.1905 58.5799 32.2024 58.5799 33.2738 58.6396C33.5714 58.6396 33.869 58.7592 34.1667 58.8787C34.3452 58.9385 34.5833 59.1776 34.6429 59.3569C34.7024 59.6558 34.4048 59.8351 34.1667 59.8351C33.5714 59.9547 32.9167 60.134 32.2619 60.1938C31.3095 60.2536 30.4167 60.1938 29.4643 60.1938C26.1905 60.1938 22.9167 60.1938 19.5833 60.1938C19.3452 60.1938 19.0476 60.1938 18.75 60.1938C18.75 59.596 18.75 59.1178 18.75 58.5798C19.5833 58.5798 20.4167 58.5798 21.25 58.5798C21.4286 57.9821 21.4286 37.6585 21.3095 36.8216C21.131 36.8216 20.8929 36.7618 20.7143 36.7618C18.9286 36.7618 17.1429 36.7618 15.3571 36.7618C14.881 36.7618 14.5833 36.9412 14.2857 37.2998C11.9643 40.707 9.58333 44.174 7.2619 47.5812C7.14286 47.7605 7.02381 47.9398 6.90476 48.1192C6.78571 48.3583 6.60714 48.418 6.30952 48.418C5.2381 48.418 4.16667 48.418 3.09524 48.418C2.79762 48.418 2.61905 48.2985 2.44048 48.0594L2.38095 47.9996C1.36905 46.8041 1.36905 46.8041 1.36905 45.1902C1.36905 42.6796 1.36905 40.169 1.36905 37.6585C1.36905 37.4194 1.36905 37.1205 1.36905 36.8216C1.84524 36.8216 2.20238 36.7618 2.67857 36.7618C2.67857 36.2239 2.67857 35.6859 2.67857 35.0881C4.52381 35.0881 6.25 35.0881 7.91667 35.0881C8.03571 34.6697 7.79762 34.6099 7.55952 34.5502C6.84524 34.4306 6.13095 34.3111 5.35714 34.1915C3.69048 33.9524 2.02381 33.6535 0.357143 33.4144C0.238095 33.4144 0.119048 33.3547 0 33.2949C0 31.0832 0 28.9313 0 26.7196C1.54762 26.4805 3.09524 26.2414 4.64286 26.0023C5.59524 25.823 6.54762 25.7034 7.55952 25.5839C7.79762 25.5241 8.03571 25.4643 7.91667 25.0459C6.19048 25.0459 4.52381 25.0459 2.67857 25.0459C2.67857 24.4481 2.67857 23.9699 2.67857 23.3722C2.20238 23.3124 1.78571 23.3124 1.36905 23.2526C1.36905 23.0135 1.30952 22.8342 1.30952 22.5951C1.30952 19.7259 1.30952 16.7969 1.30952 13.9277C1.30952 13.5092 1.4881 13.2104 1.72619 12.8517C2.32143 11.8953 3.09524 11.5366 4.16667 11.716C4.7619 11.7757 5.41667 11.7757 6.0119 11.716C6.4881 11.6562 6.72619 11.8355 7.02381 12.2539C8.21429 14.0472 9.40476 15.7807 10.5952 17.5142C11.8452 19.3074 13.0952 21.1605 14.2857 22.9537C14.5238 23.3124 14.7619 23.4319 15.2381 23.4319C17.0238 23.4319 18.869 23.4319 20.6548 23.4319C20.8333 23.4319 21.0119 23.4319 21.1905 23.4319C21.369 22.894 21.4286 3.34742 21.25 1.67371C20.4167 1.67371 19.5833 1.67371 18.6905 1.67371C18.6905 1.07596 18.6905 0.597757 18.6905 0.059779C18.9286 0.059779 19.1667 0 19.4048 0C23.5119 0 27.619 0 31.7857 0C32.4405 0 33.0952 0.119556 33.75 0.239107C33.9286 0.239107 34.1071 0.358654 34.2857 0.478205C34.6429 0.717306 34.7024 1.07596 34.2857 1.19551C33.6905 1.37483 33.0952 1.55417 32.5 1.61394C31.5476 1.67372 30.5952 1.61394 29.6429 1.61394C29.5238 1.61394 29.3452 1.61394 29.1667 1.61394C29.2262 1.79327 29.2857 1.97259 29.4048 2.09214C33.2738 7.89035 37.1429 13.7483 41.0119 19.5465C41.25 19.8454 41.4286 20.0248 41.8452 19.965C43.3929 19.7857 44.8214 20.2041 46.1905 20.7421C48.2738 21.5191 50.4167 22.2364 52.5 23.0135C53.1548 23.2526 53.8095 23.3722 54.5238 23.4319C58.2738 23.8504 62.0238 24.3286 65.7738 24.747C70.0595 25.2252 73.9881 26.7196 77.8571 28.3933C78.3929 28.6324 78.869 28.9313 79.3452 29.2899C79.5833 29.4692 79.8214 29.7681 80 29.9475C79.8214 30.5452 79.4048 30.8441 78.9881 31.0234C78.0357 31.5016 77.0238 32.0396 76.0119 32.3983C73.4524 33.2949 70.8333 34.1317 68.2143 34.9088C67.4405 35.1479 66.6071 35.1479 65.8333 35.2675C62.7976 35.6261 59.7619 35.9848 56.6667 36.2836C55.6548 36.4032 54.7024 36.5227 53.6905 36.6423C53.3929 36.7021 53.1548 36.7618 52.8571 36.8216C50.2976 37.7183 47.7976 38.6149 45.2381 39.5713C44.3452 39.9299 43.4524 40.0495 42.4405 40.0495C40.9524 40.0495 41.4286 39.8104 40.5952 41.0657C36.9048 46.6248 33.2143 52.1839 29.5238 57.743C29.4643 57.9821 29.3452 58.2212 29.1667 58.5201Z" fill="black"/>
</svg>
