<svg xmlns="http://www.w3.org/2000/svg" viewBox="0 0 595.2 841.9" style="enable-background:new 0 0 595.2 841.9" xml:space="preserve"><style>.st0,.st1{fill-rule:evenodd;clip-rule:evenodd}.st1{fill:#fff}</style><switch><g><g id="Группа_1_1_"><path class="st0" d="M383.9 394.9H332v8h52.1z" id="Прямоугольник_3"/><path class="st0" d="M360.8 392.6h-22.2v8h22.3z" id="Прямоугольник_3_1_"/><path class="st0" d="M356.1 399.9v22.2h8v-22.3z" id="Прямоугольник_3_2_"/><path class="st0" d="M392.7 395.8h-49.8v6.3H395z" id="Прямоугольник_3_3_"/><path class="st0" d="M416.4 397.5h-68.9v3.1h69.2z" id="Прямоугольник_3_4_"/><path class="st0" d="M341.8 416.9h-49.2l-5.8 36.6 69.3-3.9z" id="Прямоугольник_3_5_"/><path class="st0" d="M373.8 407.5h-49.2l-5.7 36.6 69.2-3.9z" id="Прямоугольник_3_6_"/><path class="st0" d="M250.2 416.9H201l-5.7 36.6 69.2-3.9z" id="Прямоугольник_3_7_"/><path class="st0" d="m374.8 499.1 47 44.5 23.2-33.1 2.6-11.5z" id="Прямоугольник_9"/><path class="st0" d="m194.5 486.7-12.3 22.2 15.3 9 89.3-27.4z" id="Прямоугольник_9_1_"/><path class="st0" d="m409 423.8-222.8-1.7 9.3 78.6 252.1-1.4z" id="Прямоугольник_16"/><path class="st0" d="M431.9 492.8H210.5v31.7h225.3z" id="Прямоугольник_12"/><path class="st0" d="M217.8 539.2h186.3v14.7H217.8z" id="Прямоугольник_11"/><ellipse class="st0" cx="219.8" cy="524.6" rx="22.9" ry="29.3" id="Эллипс_1_копия_4"/><ellipse class="st0" cx="404" cy="524.6" rx="22.9" ry="29.3" id="Эллипс_1_копия_4_1_"/><circle class="st1" cx="220" cy="531.8" r="17.2" id="Эллипс_1_копия_3"/><ellipse class="st0" cx="220" cy="531.8" rx="13.7" ry="13.6" id="Эллипс_1_копия_4_2_"/><circle class="st1" cx="250.8" cy="531.8" r="17.2" id="Эллипс_1_копия_3_1_"/><ellipse class="st0" cx="250.9" cy="531.8" rx="13.7" ry="13.6" id="Эллипс_1_копия_4_3_"/><circle class="st1" cx="281.7" cy="532.1" r="17.2" id="Эллипс_1_копия_3_2_"/><ellipse class="st0" cx="281.8" cy="532.1" rx="13.7" ry="13.6" id="Эллипс_1_копия_4_4_"/><circle class="st1" cx="312.6" cy="532.1" r="17.2" id="Эллипс_1_копия_3_3_"/><ellipse class="st0" cx="312.6" cy="532.1" rx="13.7" ry="13.6" id="Эллипс_1_копия_4_5_"/><circle class="st1" cx="343.4" cy="531.8" r="17.2" id="Эллипс_1_копия_3_4_"/><ellipse class="st0" cx="343.5" cy="531.8" rx="13.7" ry="13.6" id="Эллипс_1_копия_4_6_"/><circle class="st1" cx="374.3" cy="531.8" r="17.2" id="Эллипс_1_копия_3_5_"/><ellipse class="st0" cx="374.4" cy="531.8" rx="13.7" ry="13.6" id="Эллипс_1_копия_4_7_"/><circle class="st1" cx="405.2" cy="531.8" r="17.2" id="Эллипс_1_копия_3_6_"/><ellipse class="st0" cx="405.2" cy="531.8" rx="13.7" ry="13.6" id="Эллипс_1_копия_4_8_"/></g></g></switch></svg>