<svg width="80" height="61" viewBox="0 0 80 61" fill="none" xmlns="http://www.w3.org/2000/svg">
    <path d="M27.3682 28.8711C27.6723 30.1445 27.9764 31.3572 28.2197 32.5699C28.2805 32.8731 28.5238 32.9337 28.767 32.9337C30.9565 33.3582 33.146 33.8433 35.3354 34.2071C36.1869 34.3284 36.7342 34.6922 37.2208 35.4198C38.0114 36.6932 38.9237 37.8452 39.7752 39.058C40.0184 39.3611 40.2617 39.543 40.6266 39.543C46.8301 39.6643 52.9727 39.8462 59.1762 39.9675C59.4195 39.9675 59.6019 39.9675 59.906 39.9675C61.1832 36.8751 62.4604 33.7826 63.7984 30.6296C68.2989 30.6296 72.8603 30.6296 77.4825 30.6296C77.6649 31.4178 77.8474 32.2061 78.0299 33.055C78.638 35.8443 79.2462 38.6942 79.9152 41.4834C80.0369 42.0291 80.0369 42.5142 79.8544 42.9993C78.8813 45.9098 77.9082 48.881 76.9959 51.7915C76.8743 52.216 76.8135 52.7011 76.8135 53.1255C77.0568 57.0669 73.7118 60.4019 69.6369 60.22C68.8463 60.1593 67.9948 60.1593 67.2042 60.1593C49.0804 60.1593 30.9565 60.1593 12.8327 60.1593C12.3461 60.1593 11.7987 60.1593 11.3122 60.22C7.41983 60.4625 4.3181 57.7945 4.01401 53.9138C3.95319 53.4894 3.83155 53.1255 3.58828 52.8224C2.55437 51.3065 1.45964 49.7906 0.425728 48.2747C0.304091 48.0928 0.182455 47.8502 0 47.6683C2.06782 44.1514 4.07482 40.6345 6.20346 37.057C6.9941 37.1176 7.72392 37.1782 8.51456 37.2389C9.12274 37.2995 9.54847 37.1782 9.91338 36.6325C10.5824 35.723 11.373 34.9347 12.1028 34.0858C12.2245 33.9039 12.3461 33.7826 12.4677 33.4794C10.2175 34.1464 7.96719 34.8741 5.6561 35.6017C5.16955 34.2677 4.74383 32.9944 4.3181 31.721C5.47364 31.3572 6.56837 30.9934 7.72392 30.6902C23.2934 25.9606 38.9237 21.1703 54.4932 16.4407C55.0405 16.2588 55.5271 16.2588 56.0745 16.5013C57.4125 17.0471 58.8113 17.5928 60.1493 18.1385C60.3317 18.1992 60.5142 18.3204 60.8791 18.4417C49.5669 21.9586 38.498 25.4149 27.3682 28.8711ZM47.0733 55.9148C48.1073 57.6732 49.5669 58.6434 51.5739 58.7041C53.5809 58.7041 55.1014 57.7339 56.1961 56.0361C57.2908 57.7945 58.8113 58.7647 60.8183 58.7041C62.8253 58.7041 64.2849 57.6732 65.3188 55.9754C67.265 59.1891 70.9141 59.3711 73.0428 57.6126C75.293 55.7935 75.5971 52.4585 73.6509 50.3363C72.6778 49.2448 71.4007 48.6991 69.941 48.6385C67.8732 48.6385 66.3527 49.6086 65.258 51.3671C64.1633 49.6086 62.7036 48.6385 60.7575 48.6385C58.7505 48.6385 57.23 49.6087 56.1961 51.3065C56.0136 51.0639 55.892 50.8214 55.7095 50.6395C54.7365 49.3661 53.3985 48.6385 51.7564 48.6385C49.7494 48.6385 48.2289 49.4874 47.195 51.1852C46.9517 51.6096 46.7084 51.7915 46.2219 51.7309C46.1611 51.7309 46.1003 51.7309 45.9786 51.7309C45.3704 51.8522 44.9447 51.6096 44.5798 51.0033C42.6944 48.1534 38.498 47.9715 36.3693 50.7001C36.0044 51.6703 35.2138 51.7915 34.3015 51.7309C33.7541 51.6703 33.3892 51.6096 33.0851 51.0639C31.1998 48.0321 26.8209 47.9715 24.6922 50.8214C24.5706 51.0033 24.4489 51.1852 24.2665 51.4277C23.2326 49.6693 21.7729 48.6385 19.7659 48.5778C17.6981 48.5172 16.2385 49.548 15.1438 51.2458C13.0151 47.9108 9.36602 48.0321 7.29819 49.7906C5.04792 51.6703 4.92628 55.0659 6.9941 57.1275C8.02801 58.1583 9.36601 58.704 10.8257 58.6434C12.711 58.5828 14.1098 57.6126 15.1438 56.0361C17.394 59.553 22.077 59.4923 24.2665 56.0967H24.3273C24.4489 56.2786 24.5706 56.4605 24.6922 56.6424C25.7261 58.0371 27.0641 58.7647 28.767 58.8253C30.7132 58.8253 32.1729 57.9764 33.2068 56.3392C33.4501 55.9754 33.6933 55.8542 34.0582 55.8542C34.6056 55.8542 35.153 55.8542 35.7003 55.8542C35.8828 56.0967 36.0044 56.3392 36.1261 56.5818C38.0722 59.4317 42.2079 59.6136 44.3365 56.885C44.7014 55.8542 45.5529 55.7935 46.4652 55.8542C46.7693 55.9148 46.8909 55.9148 47.0733 55.9148Z" fill="black"/>
    <path d="M1.70324 24.1416C1.21669 22.8076 0.790962 21.5342 0.365234 20.2609C0.912599 20.079 1.39914 19.8971 1.88569 19.7758C23.5978 13.2271 45.3708 6.67841 67.0829 0.129715C67.6302 -0.0521934 68.056 -0.052199 68.6033 0.190345C69.9413 0.73607 71.3402 1.2818 72.6782 1.82753C72.9214 1.88816 73.1039 2.00943 73.4688 2.19134C49.5064 9.5283 25.6656 16.8046 1.70324 24.1416Z" fill="black"/>
    <path d="M3.64855 29.7807C3.22282 28.568 2.79709 27.2946 2.31055 25.9606C3.34446 25.6574 4.31755 25.3543 5.29064 25.0511C20.9818 20.2608 36.6729 15.4706 52.364 10.6803C52.9722 10.4984 53.5195 10.4984 54.0669 10.741C55.4049 11.2867 56.7429 11.8324 58.0809 12.3175C58.2634 12.3781 58.4458 12.4994 58.6283 12.56C58.6283 12.6207 58.6283 12.6207 58.6283 12.6813C58.6283 12.6813 58.6283 12.742 58.5675 12.742C40.322 18.4417 22.0765 24.0809 3.831 29.7807C3.89182 29.8413 3.77019 29.7807 3.64855 29.7807Z" fill="black"/>
    <path d="M15.8135 53.6714C15.8135 51.4279 17.638 49.7301 19.8883 49.7301C22.0778 49.7907 23.9023 51.5492 23.8415 53.7321C23.8415 55.915 22.0169 57.734 19.7667 57.6734C17.5772 57.6734 15.8135 55.915 15.8135 53.6714Z" fill="black"/>
    <path d="M24.936 53.7926C24.936 51.6097 26.7606 49.7907 29.0109 49.8513C31.2003 49.8513 33.0249 51.6704 33.0249 53.8533C33.0249 56.0362 31.2003 57.8553 28.9501 57.8553C26.6998 57.7946 24.8752 55.9755 24.936 53.7926Z" fill="black"/>
    <path d="M36.4307 53.7926C36.4307 51.5491 38.2552 49.7906 40.5055 49.7906C42.6949 49.7906 44.5195 51.6097 44.5195 53.732C44.5195 55.9149 42.6949 57.7339 40.5055 57.7339C38.2552 57.7946 36.4307 56.0361 36.4307 53.7926Z" fill="black"/>
    <path d="M55.709 53.732C55.709 55.9755 53.8844 57.734 51.6341 57.734C49.4447 57.734 47.6201 55.9755 47.6201 53.7926C47.6201 51.6097 49.4447 49.7907 51.6341 49.7907C53.8844 49.73 55.709 51.4885 55.709 53.732Z" fill="black"/>
    <path d="M56.8047 53.732C56.8047 51.4885 58.6292 49.73 60.8795 49.7907C63.069 49.7907 64.8935 51.5491 64.8935 53.732C64.8935 55.9149 63.069 57.734 60.8795 57.734C58.5684 57.734 56.8047 55.9149 56.8047 53.732Z" fill="black"/>
    <path d="M65.8672 53.7321C65.8672 51.4885 67.6309 49.7301 69.8812 49.7301C72.1315 49.7301 73.956 51.5492 73.8952 53.7321C73.8952 55.915 72.0707 57.6734 69.8812 57.6734C67.6917 57.734 65.8672 55.9756 65.8672 53.7321Z" fill="black"/>
    <path d="M14.718 53.732C14.718 55.9755 12.9542 57.734 10.704 57.734C8.45368 57.734 6.62914 55.9149 6.68995 53.732C6.68995 51.5491 8.5145 49.7907 10.704 49.7907C12.8934 49.73 14.718 51.4885 14.718 53.732Z" fill="black"/>
</svg>
