<svg width="80" height="41" viewBox="0 0 80 41" fill="none" xmlns="http://www.w3.org/2000/svg">
    <path d="M3.88377 34.2782C2.75576 33.5881 1.5787 32.8487 0.401647 32.1586C0.107383 32.0107 -0.0397502 31.7642 0.00929378 31.4191C0.00929378 27.5249 0.00929378 23.5813 0.00929378 19.687C0.00929378 19.6377 0.00929678 19.5391 0.0583407 19.3913C1.13731 19.0955 2.26532 18.7504 3.49142 18.4054C3.49142 17.4688 3.49142 16.5815 3.49142 15.5956C4.61943 15.3491 5.64935 15.1026 6.77736 14.8069C7.12067 13.2787 7.51302 11.7506 7.90537 10.1732C10.7499 10.2225 13.5945 10.2718 16.4881 10.3211C16.2428 9.43375 15.9976 8.64504 15.7034 7.80703C13.7906 7.75774 11.927 7.75774 9.91618 7.70844C10.0633 7.41268 10.1614 7.2155 10.2595 7.06761C11.1423 5.63807 12.0251 4.20853 12.8588 2.77898C13.104 2.33533 13.3983 2.18745 13.9378 2.18745C14.7225 2.23674 15.4581 2.18745 16.2428 2.18745C16.5862 2.18745 16.8804 2.13815 17.1256 1.89168C17.8123 1.05367 18.7441 0.8072 19.774 0.955084C20.0683 1.00438 20.3135 0.955084 20.6078 0.955084C22.03 1.05367 23.3542 0.856494 24.6294 0.16637C24.8746 0.0184859 25.2179 -0.0308092 25.5122 0.0184854C28.9452 0.117075 32.3293 0.166369 35.7623 0.264958C36.0076 0.264958 36.3018 0.363548 36.547 0.511431C37.4298 1.00438 38.3126 1.44803 39.1464 1.99027C39.5878 2.28604 40.0782 2.38463 40.6177 2.33533C41.4024 2.28604 42.1871 2.28604 42.9718 2.23674C43.3151 2.23674 43.6584 2.28604 43.9527 2.48322C44.0508 2.53251 44.1489 2.58181 44.247 2.68039C44.9826 3.22264 45.8164 3.46911 46.6992 3.46911C46.8463 3.46911 47.0915 3.46911 47.1405 3.5677C47.4348 4.01135 47.8762 3.91276 48.2686 3.91276C52.9277 4.01135 57.5379 4.06064 62.197 4.15923C62.6875 4.15923 63.0798 4.10994 63.227 3.46911C64.1588 3.5184 65.1397 3.5677 66.0225 3.5677C66.611 4.84936 66.611 4.50429 65.9734 5.88454C65.0906 5.88454 64.1588 5.88454 63.227 5.88454C63.1289 5.68737 63.0308 5.49019 62.9327 5.29301C62.7856 5.29301 62.6875 5.24371 62.5403 5.24371C59.5977 5.29301 56.7041 5.3916 53.7615 5.44089C51.7997 5.49019 49.887 5.53948 47.9253 5.58877C47.631 5.58877 47.3858 5.58877 47.0915 5.83525C46.8953 6.03243 46.552 6.03243 46.2578 6.03243C45.7673 6.03243 45.3259 6.18031 44.8845 6.47608C44.345 6.82114 43.7565 7.11691 43.217 7.46197C43.1189 7.51127 43.0209 7.60985 42.9228 7.60985C42.04 7.70844 41.8438 8.49716 41.5005 9.13799C41.1572 9.77882 41.7457 10.6661 42.5304 10.6661C44.9336 10.7154 47.3367 10.7647 49.7889 10.814C54.301 10.9126 58.813 10.9619 63.276 11.0112C63.7664 11.0112 64.1098 11.1591 64.3059 11.6027C64.9925 13.0816 66.0715 14.2153 67.3467 15.2998C71.3683 18.7011 75.3408 22.2011 79.3134 25.6517C79.5586 25.8489 79.7548 26.046 80 26.2432C79.4115 27.6728 78.8229 29.0037 78.2344 30.384C77.744 31.567 77.2045 32.7994 76.7141 33.9825C76.616 34.2289 76.5179 34.4754 76.5179 34.7219C76.1746 38.2711 73.4771 40.7851 69.8969 40.933C69.7498 40.933 69.5536 40.933 69.4065 40.933C49.936 40.933 30.4656 40.933 10.9951 40.933C7.90538 40.933 5.30604 38.9612 4.4723 36.0035C4.07995 35.5599 3.98186 34.9684 3.88377 34.2782ZM42.4814 36.6937C43.7075 36.6937 44.9336 36.743 46.1106 36.6937C46.6011 36.6937 46.8953 36.8416 47.1405 37.2852C49.1023 40.2922 53.4672 40.3415 55.478 37.3838C55.6252 37.1866 55.7232 36.9894 55.8704 36.7923C57.9793 40.4401 62.7856 40.4894 64.9925 36.8416C65.8263 38.2218 66.9543 39.1584 68.5237 39.4542C70.1422 39.7499 71.5644 39.4049 72.7905 38.3204C74.9485 36.4965 75.1446 33.243 73.281 31.1234C72.3491 30.0882 71.1721 29.4967 69.7498 29.4474C67.6409 29.3981 66.1206 30.384 64.9925 32.1586C63.9136 30.384 62.4423 29.3981 60.4315 29.4474C58.4207 29.4474 56.9493 30.4825 55.9194 32.2079C53.6634 28.3629 48.71 28.6094 46.7482 32.3064C45.5221 32.3064 44.247 32.3064 43.0209 32.3064C42.5795 32.3064 42.3342 32.2079 42.089 31.8135C40.0782 28.7572 35.7623 28.7079 33.7025 31.7642C33.6044 31.9121 33.5063 32.06 33.3592 32.2572C32.2802 30.5318 30.8089 29.5459 28.7981 29.5459C26.7873 29.5459 25.316 30.5811 24.2861 32.3064C22.3243 28.7079 17.4199 28.4122 15.1639 32.1586C13.0059 28.6586 9.13148 29.053 7.21876 30.8276C5.06083 32.8487 5.06083 36.2993 7.21876 38.3204C9.08243 40.095 12.9569 40.4894 15.1639 36.9401C17.2237 40.4894 22.0791 40.5879 24.237 36.8908C25.2179 38.6655 26.6892 39.7006 28.7491 39.7006C30.7599 39.7006 32.2802 38.7147 33.3101 36.9894C35.7133 40.7851 40.6177 40.3415 42.4814 36.6937Z" fill="black"/>
    <path d="M10.7003 38.5175C8.54237 38.5668 6.72775 36.7429 6.67871 34.5739C6.62966 32.3557 8.44429 30.4825 10.6513 30.4825C12.8582 30.4825 14.6238 32.2571 14.6729 34.4261C14.7219 36.6443 12.9073 38.5175 10.7003 38.5175Z" fill="black"/>
    <path d="M19.7726 38.5175C17.6146 38.5175 15.8 36.7429 15.751 34.5739C15.7019 32.3557 17.5166 30.4825 19.7235 30.4825C21.9305 30.4825 23.7451 32.3064 23.7451 34.5246C23.7451 36.6936 21.9305 38.5175 19.7726 38.5175Z" fill="black"/>
    <path d="M60.5284 30.4825C62.6864 30.4825 64.501 32.3064 64.501 34.4753C64.501 36.6936 62.6864 38.5175 60.4794 38.5175C58.2724 38.5175 56.5068 36.6936 56.5068 34.5246C56.5068 32.3064 58.3215 30.4825 60.5284 30.4825Z" fill="black"/>
    <path d="M69.6026 30.4825C71.7606 30.4825 73.5752 32.3064 73.5752 34.4753C73.5752 36.6936 71.7606 38.5175 69.5536 38.5175C67.3466 38.5175 65.581 36.6936 65.581 34.5246C65.532 32.3064 67.3956 30.4825 69.6026 30.4825Z" fill="black"/>
    <path d="M55.3789 34.4753C55.3789 36.6936 53.5643 38.5175 51.3573 38.5175C49.1504 38.5175 47.3848 36.6936 47.3848 34.5246C47.3848 32.2571 49.1504 30.4825 51.4064 30.4825C53.6134 30.4825 55.3789 32.2571 55.3789 34.4753Z" fill="black"/>
    <path d="M24.874 34.6726C24.874 32.4051 26.6396 30.6305 28.8956 30.6305C31.1026 30.6305 32.8682 32.4051 32.8682 34.6234C32.8682 36.8909 31.1026 38.6655 28.8466 38.6655C26.6396 38.6655 24.874 36.8909 24.874 34.6726Z" fill="black"/>
    <path d="M41.8914 34.6234C41.8914 36.8909 40.1258 38.6655 37.9189 38.6655C35.7119 38.6655 33.9463 36.8909 33.9463 34.6726C33.9463 32.4051 35.7119 30.6305 37.9189 30.6305C40.0768 30.6305 41.8424 32.4051 41.8914 34.6234Z" fill="black"/>
</svg>
