<svg width="80" height="59" viewBox="0 0 80 59" fill="none" xmlns="http://www.w3.org/2000/svg">
    <path d="M53.4357 37.1143C53.4357 32.7732 53.4357 28.4907 53.4357 24.0908C53.7274 24.0908 53.9607 24.0322 54.1941 24.0322C59.8527 24.0322 65.5113 24.0322 71.1699 24.0322C71.5782 24.0322 71.8699 24.1495 72.1032 24.5015C74.6117 28.5493 77.1784 32.5972 79.7452 36.5863C79.9786 36.9383 80.0369 37.2316 79.9786 37.5836C79.0452 42.3941 78.0535 47.2046 77.1201 52.0737C77.1201 52.1324 77.0618 52.191 77.0035 52.367C75.4867 52.4257 74.0283 52.4257 72.4532 52.367C72.2199 50.0205 71.2865 48.0846 69.4781 46.6179C68.0197 45.5033 66.3863 44.9167 64.5779 44.9753C62.5361 45.034 60.7861 45.738 59.386 47.2046C57.9859 48.6125 57.2276 50.3138 57.0525 52.367C51.744 52.367 46.4354 52.367 41.0685 52.367C41.0101 52.191 40.9518 51.9564 40.9518 51.7217C40.4851 48.3779 38.0933 45.7966 34.8849 45.1513C31.6181 44.506 28.4096 45.914 26.6595 48.8472C26.5428 49.0232 26.4261 49.1992 26.3095 49.4338C24.326 46.0313 21.4676 44.3887 17.6174 45.21C13.8839 46.0313 12.0172 48.6712 11.5505 52.4257C9.9754 52.4257 8.40032 52.4257 6.76692 52.4257C5.95021 47.3219 5.19184 42.2768 4.37514 37.1143C7.46695 37.0557 10.4421 37.1143 13.4172 37.1143C13.4172 35.0611 13.4172 33.1251 13.4172 31.0719C10.7921 31.8932 8.16697 32.7732 5.48352 33.5945C4.95849 32.1278 4.43348 30.7199 3.9668 29.2533C4.25848 29.136 4.49181 29.0773 4.72516 28.96C23.2177 23.1522 41.6518 17.2858 60.1443 11.478C60.611 11.302 61.0194 11.3607 61.4277 11.5367C63.0612 12.182 64.6946 12.8273 66.2696 13.4726C66.4446 13.5313 66.678 13.6486 66.853 13.7072C66.853 13.7659 66.853 13.7659 66.853 13.8246V13.8832C66.7947 13.8832 66.7946 13.9419 66.7363 13.9419C54.7774 17.8137 42.7602 21.6856 30.8014 25.5574C30.8014 25.5574 30.743 25.6161 30.6847 25.6748C32.0847 29.488 33.4848 33.3011 34.8849 37.1143C41.0102 37.1143 47.1354 37.1143 53.4357 37.1143Z" fill="black"/>
    <path d="M63.1195 2.67834C42.5269 9.30741 22.051 15.8778 1.51674 22.5069C0.991715 21.0403 0.525024 19.6323 0 18.1657C0.29168 18.0484 0.525031 17.9897 0.700039 17.8724C19.1925 12.006 37.7434 6.19821 56.2359 0.331773C56.6442 0.214444 56.9943 0.214439 57.4026 0.390432C59.036 1.03574 60.7278 1.68106 62.4195 2.32637C62.5945 2.38503 62.7695 2.50234 63.1195 2.67834Z" fill="black"/>
    <path d="M3.50014 27.9626C3.03345 26.6133 2.56677 25.3227 2.10008 24.0908C2.04174 23.9734 2.04173 23.7974 1.9834 23.6214C2.21674 23.5041 2.45009 23.4455 2.68344 23.3281C8.75038 21.3922 14.759 19.5149 20.8259 17.579C33.2515 13.6485 45.6771 9.77667 58.1026 5.84616C58.5693 5.67017 58.9777 5.67015 59.4443 5.90481C61.0778 6.60878 62.7695 7.19544 64.4613 7.89941C64.6363 7.95808 64.8113 8.0754 65.1029 8.19273C44.5103 14.7631 24.0927 21.3335 3.50014 27.9626Z" fill="black"/>
    <path d="M19.2503 58.8788C15.8668 58.8788 13.125 56.1216 13.125 52.7777C13.125 49.4338 15.9251 46.6766 19.2503 46.6766C22.6338 46.6766 25.3756 49.4338 25.3756 52.7777C25.3756 56.1802 22.6338 58.8788 19.2503 58.8788Z" fill="black"/>
    <path d="M39.4927 52.7777C39.4927 56.1802 36.751 58.8788 33.3675 58.8788C29.984 58.8788 27.2422 56.1802 27.2422 52.7777C27.2422 49.3752 29.984 46.6766 33.3675 46.6766C36.751 46.6766 39.4927 49.4338 39.4927 52.7777Z" fill="black"/>
    <path d="M64.6949 58.8787C61.3114 58.8787 58.6279 56.1215 58.6279 52.719C58.6279 49.3164 61.3697 46.6179 64.7532 46.6179C68.1367 46.6179 70.8201 49.3751 70.8201 52.7776C70.8201 56.1802 68.1367 58.8787 64.6949 58.8787Z" fill="black"/>
</svg>
