<?xml version="1.0" encoding="UTF-8" standalone="no"?>
<svg xmlns="http://www.w3.org/2000/svg" viewBox="0 0 80 42.85" width="80" height="42.85" fill="black">
<path d="m 36.9,0 -6.6,2.68 -0.5,-1.49 -29.8,9.52 3.01,11.31 1.84,-0.6 2.85,0.9 -1.4,11.31 c 0,0 0.1,0 0.2,0 h 1.3 a 7.678,7.678 0 0 1 7,-4.47 7.678,7.678 0 0 1 7,4.47 7.678,7.678 0 0 1 7.1,-4.47 7.678,7.678 0 0 1 7,4.47 l 21.8,0.3 a 7.678,7.678 0 0 1 7,-4.77 7.678,7.678 0 0 1 7.1,4.77 h 1.6 c 0,0 6.6,-5.06 6.6,-5.06 v -8.04 c 0,0 -16.8,-2.68 -16.8,-2.68 0,0 -0.1,0 -0.1,0 l -3.7,-7.73 c 0,0 0,0 -0.1,0 h -11.7 c -0.1,0 -0.2,0 -0.2,0 v 4.16 l -2.9,0.9 -1.3,8.33 h -19.6 l -2.7,-7.44 12.9,-4.17 -0.4,-1.19 6.2,-2.38 z m -22.1,30.65 a 6.101,6.071 0 0 0 -6.1,6.25 6.101,6.071 0 0 0 6.2,5.95 6.101,6.071 0 0 0 6.1,-5.95 6.101,6.071 0 0 0 -6.1,-6.25 6.101,6.071 0 0 0 -0.1,0 z m 14,0 a 6.101,6.071 0 0 0 -6,6.25 6.101,6.071 0 0 0 6.1,5.95 6.101,6.071 0 0 0 6.1,-5.95 6.101,6.071 0 0 0 -6.1,-6.25 6.101,6.071 0 0 0 -0.1,0 z m 35.9,0 a 6.101,6.071 0 0 0 -6.1,6.25 6.101,6.071 0 0 0 6.1,5.95 6.101,6.071 0 0 0 6.1,-5.95 6.101,6.071 0 0 0 -6.1,-6.25 z" />
</svg>
