<svg xmlns="http://www.w3.org/2000/svg" viewBox="0 0 595.2 841.9" style="enable-background:new 0 0 595.2 841.9" xml:space="preserve"><style>.st0,.st1{fill-rule:evenodd;clip-rule:evenodd}.st1{fill:#fff}</style><switch><g><g id="Группа_1_1_"><path class="st0" d="M392.4 465.1s-24.2 28.2-60.6 30.3c-64.4 3.8-92-18.7-92.1-18.8-3-15.9-33.4-.1-33.4.2l-4.8 40.1c0 .3.3.6.6.6l224.6.6c.3 0 22.3-16.7 22.3-17v-26.9c0-.3-56.3-9.1-56.6-9.1z" id="Прямоугольник_x2C__скругл._углы_3"/><path class="st0" d="M379.9 439.6c0-.2-.2-.4-.4-.4H340c-.2 0-.4.2-.4.4v56.6c0 .2.2.4.4.4l57.2-19.4c.2 0 .4-.2.4-.4l-17.7-37.2z" id="Прямоугольник_x2C__скругл._углы_4"/><path class="st0" d="m249.6 456.7-52.8.1-1.7 19.1 68.4 19z" id="Прямоугольник_2"/><path class="st0" d="m280.3 408.7-100.1 31.2 10.1 38.4L293.8 445z" id="Прямоугольник_3"/><path class="st0" d="m304.1 404.4-111.4 42.7 26.5 20.9 94.2-34.4z" id="Прямоугольник_3_1_"/><path class="st0" d="m394 484.6-176.4-.7 1.1 15.6 193.6-1.1z" id="Прямоугольник_3_2_"/><path class="st0" d="m369.4 443.5-39.6 13.2-4.8 30.7 58-3.2z" id="Прямоугольник_3_3_"/><circle class="st1" cx="230" cy="528.1" r="25.8" id="Эллипс_1"/><ellipse class="st0" cx="230.1" cy="528.2" rx="20.5" ry="20.4" id="Эллипс_1_1_"/><circle class="st1" cx="277.2" cy="528.1" r="25.8" id="Эллипс_1_2_"/><ellipse class="st0" cx="277.2" cy="528.2" rx="20.5" ry="20.4" id="Эллипс_1_3_"/><circle class="st1" cx="397.7" cy="528.1" r="25.8" id="Эллипс_1_4_"/><ellipse class="st0" cx="397.7" cy="528.2" rx="20.5" ry="20.4" id="Эллипс_1_5_"/></g></g></switch></svg>