<svg width="80" height="61" viewBox="0 0 80 61" fill="none" xmlns="http://www.w3.org/2000/svg">
    <path d="M0.18822 45.0314C3.88934 45.0894 7.53263 45.1475 11.2337 45.1475C12.4482 41.3175 13.6626 37.5455 14.877 33.7736C14.8192 33.7155 14.8192 33.7155 14.7614 33.6575C12.7373 34.8181 10.7711 35.9787 8.68923 37.1393C9.09404 38.9963 9.49886 40.7952 9.9615 42.7102C9.20971 43.1164 8.45791 43.4646 7.59046 43.9288C6.83868 42.304 6.08689 40.7372 5.27727 39.1703C4.46765 39.6346 3.71585 40.0408 2.90623 40.505C2.03879 38.9963 1.22917 37.5455 0.303887 36.0367C1.11351 35.5145 1.92312 35.1082 2.79057 34.5279C1.86529 33.0192 0.99785 31.5104 0.0725705 30.0016C0.88219 29.6534 1.63397 29.3633 2.50142 29.0151C3.65802 30.2337 4.81462 31.4523 6.02905 32.671C10.7133 30.0016 15.3397 27.2742 20.0239 24.5468C19.8504 23.5022 19.6769 22.4577 19.5613 21.3551C20.4287 20.8909 21.2962 20.3686 22.2214 19.9043C22.0479 19.5562 21.9323 19.266 21.701 18.8598C20.1396 19.7302 18.5781 20.5427 17.0167 21.4131C16.4963 21.0069 15.918 20.6007 15.2818 20.1945C12.2169 21.9934 9.09403 23.7924 5.97121 25.5913C6.26036 26.868 6.54951 28.1446 6.83866 29.4213C6.31819 29.7114 5.79773 29.9436 5.21943 30.2337C4.69896 29.1311 4.17849 28.0866 3.65802 26.926C3.13755 27.2161 2.61708 27.5063 2.03879 27.8545C1.46049 26.8099 0.882183 25.8234 0.246053 24.7789C0.824353 24.4307 1.40265 24.0825 1.98095 23.7343C1.34482 22.6898 0.766533 21.7033 0.130404 20.6007C0.708704 20.3686 1.22916 20.1365 1.6918 19.9624C2.55925 20.7748 3.4267 21.5872 4.35198 22.3996C7.4748 20.6007 10.7133 18.7437 13.8939 16.8868C13.7783 16.1324 13.6626 15.436 13.5469 14.6816C16.8433 12.8827 20.0817 11.1418 23.4359 9.28482C23.9563 9.633 24.4768 10.0392 24.9973 10.4454C25.2286 10.3294 25.4599 10.2133 25.6912 10.0392C30.6646 7.13771 35.6958 4.29423 40.6692 1.3347C41.421 0.870454 42.1728 0.580307 43.0402 0.522277C44.1968 0.406216 45.4113 0.17409 46.6835 0C46.5679 0.17409 46.51 0.348183 46.3944 0.464243C45.5269 1.50879 44.7173 2.55333 43.792 3.53984C43.5607 3.82999 43.2715 4.00409 42.9824 4.17818C37.8355 7.19574 32.6308 10.1553 27.484 13.1729C27.1948 13.3469 26.9635 13.463 26.6743 13.6371C26.79 14.3915 26.9057 15.1459 27.0213 15.9583C26.2117 16.4225 25.3442 16.8868 24.4768 17.409C24.7081 17.6992 24.9394 17.9893 25.1708 18.3375C28.1201 16.7127 31.0116 15.1459 33.9609 13.5791C34.7127 14.1594 35.4645 14.6816 36.2163 15.2619C37.6042 14.4495 38.9921 13.6371 40.38 12.8247C46.6835 9.16877 53.0448 5.51287 59.3483 1.85697C60.1 1.39273 60.9097 1.10258 61.7771 0.98652C63.5698 0.754399 65.3626 0.464246 67.1553 0.232126C67.271 0.232126 67.4445 0.232126 67.6758 0.232126C67.5023 0.464246 67.3866 0.638337 67.2132 0.812427C65.9987 2.26318 64.7843 3.71393 63.5699 5.16469C63.2807 5.51287 62.8759 5.86104 62.4711 6.09317C54.7219 10.6195 46.9726 15.0878 39.2234 19.5562C38.9921 19.6722 38.8186 19.7883 38.5295 19.9624C38.703 21.0649 38.8765 22.1675 39.05 23.3862C36.7368 24.6048 34.4814 25.8814 32.1104 27.1581C32.226 27.3322 32.3417 27.5063 32.4573 27.6224C33.267 28.6669 34.1344 29.6534 34.8862 30.698C35.1753 31.0461 35.4067 31.1622 35.8693 31.1622C43.1559 31.1042 50.3846 31.0461 57.6712 30.9881C59.9844 30.9881 62.2976 30.9301 64.6108 30.9301C65.0734 30.9301 65.4204 30.872 65.6517 30.4658C66.1144 29.7114 66.7505 29.5373 67.618 29.5373C70.1047 29.5954 72.5913 29.5373 75.0202 29.5373C75.2515 29.5373 75.5406 29.5373 75.8298 29.5373C76.0611 30.5819 76.2924 31.5104 76.5238 32.4389C77.5647 36.559 78.5478 40.7372 79.5887 44.8573C79.7044 45.4376 80.0514 46.0179 79.9936 46.5982C79.9357 47.1205 79.4731 47.6427 79.184 48.165C78.3165 49.6738 77.3912 51.1826 76.5238 52.6914C76.3503 52.9815 76.2346 53.3297 76.2346 53.6199C76.0611 57.3338 73.3431 60.0612 69.642 60.2353C69.4107 60.2353 69.2372 60.2353 69.0059 60.2353C49.6328 60.2353 30.2598 60.2353 10.8289 60.2353C7.59047 60.2353 4.93029 58.2042 4.1785 55.1286C4.12067 54.8385 4.005 54.4903 4.005 54.2002C4.005 53.5618 3.71585 53.0976 3.36887 52.6334C2.32793 51.1826 1.34483 49.6738 0.303887 48.2231C0.072567 47.9329 -0.0430929 47.5847 0.014737 47.2365C0.188227 46.4822 0.18822 45.8438 0.18822 45.0314ZM24.419 51.3567C23.378 49.6158 21.8745 48.6293 19.8504 48.6293C17.8842 48.6293 16.4384 49.6738 15.3975 51.3567C14.0096 49.5577 13.2578 48.9774 11.7542 48.7453C10.135 48.4552 8.74706 48.8614 7.53263 49.9059C5.33509 51.8209 5.27727 55.2447 7.35915 57.2758C8.40009 58.2623 9.61451 58.7845 11.0603 58.7265C13.0265 58.6685 14.4144 57.682 15.3975 55.9411C16.4384 57.682 17.8842 58.7265 19.9082 58.7265C21.8745 58.7265 23.378 57.74 24.419 56.0571C24.6503 56.4053 24.8238 56.6374 24.9973 56.8695C27.1948 59.597 31.3586 59.3648 33.2091 56.3473C33.4404 55.9411 33.7296 55.767 34.1922 55.825C35.2332 55.883 36.2163 55.883 37.2572 55.825C37.7199 55.825 38.009 55.9411 38.2982 56.4053C40.2644 59.5389 44.6016 59.597 46.7413 56.5794C46.857 56.4053 46.9727 56.2892 47.0883 56.0571C48.1293 57.74 49.6328 58.7265 51.6569 58.7265C53.6231 58.7265 55.1267 57.682 56.1098 55.9411C57.1507 57.74 58.6543 58.7265 60.6205 58.7265C62.5867 58.7265 64.0903 57.74 65.1312 56.0571C67.1553 59.3068 70.6829 59.2488 72.6491 57.74C74.9045 55.9991 75.3093 52.7494 73.5166 50.5443C72.5913 49.4417 71.4347 48.8034 70.0468 48.6873C67.8493 48.5132 66.2878 49.5577 65.1312 51.3567C63.2807 48.107 58.5386 47.4687 56.1098 51.3567C53.8544 47.6427 49.1124 47.8749 47.0883 51.4147C45.9896 49.7318 44.5438 48.7453 42.4619 48.8034C40.3801 48.8614 38.9343 49.964 38.009 51.7049C36.5054 51.7049 35.1175 51.7049 33.6718 51.7049C31.7056 47.9329 26.7322 47.6427 24.419 51.3567ZM24.7081 31.1622C23.8985 30.5819 23.0889 29.9436 22.2793 29.3633C21.4696 29.8275 20.7179 30.2917 19.9082 30.756C20.5444 33.9476 21.1805 37.0232 21.8745 40.1569C25.4599 40.1569 28.9875 40.1569 32.6308 40.1569C30.8381 36.6751 29.1032 33.2513 27.3683 29.7695C26.3852 30.2337 25.5178 30.698 24.7081 31.1622Z" fill="black"/>
    <path d="M6.89746 53.6779C6.89746 51.4728 8.69019 49.7319 10.9456 49.7319C13.1431 49.7319 14.878 51.5308 14.878 53.6779C14.878 55.883 13.0853 57.682 10.8299 57.682C8.6902 57.624 6.89746 55.883 6.89746 53.6779Z" fill="black"/>
    <path d="M32.9768 53.7939C32.9768 55.9991 31.1841 57.798 28.9287 57.74C26.7312 57.6819 24.9385 55.941 24.9385 53.7939C24.9385 51.5888 26.7312 49.7898 28.9287 49.7898C31.1841 49.7898 32.9768 51.5888 32.9768 53.7939Z" fill="black"/>
    <path d="M51.4825 49.7319C53.68 49.7319 55.5306 51.5308 55.4727 53.7359C55.4727 55.9411 53.6222 57.682 51.4247 57.682C49.2271 57.682 47.4922 55.9411 47.4922 53.7359C47.4922 51.4728 49.2271 49.7319 51.4825 49.7319Z" fill="black"/>
    <path d="M64.552 53.7359C64.552 55.9411 62.7593 57.682 60.5039 57.682C58.3064 57.682 56.5715 55.883 56.5137 53.7359C56.5137 51.5308 58.3064 49.7319 60.5039 49.7319C62.7593 49.7319 64.552 51.4728 64.552 53.7359Z" fill="black"/>
    <path d="M19.9084 49.7318C22.106 49.7318 23.8987 51.5888 23.8987 53.7359C23.8409 55.9411 22.0482 57.682 19.7928 57.682C17.5953 57.682 15.8604 55.883 15.8604 53.6779C15.9182 51.4727 17.7109 49.6738 19.9084 49.7318Z" fill="black"/>
    <path d="M38.4717 53.7359C38.4717 51.5308 40.2644 49.7319 42.462 49.7899C44.6595 49.7899 46.3944 51.5888 46.4522 53.7359C46.4522 55.9411 44.6595 57.74 42.462 57.74C40.2644 57.74 38.4717 55.9411 38.4717 53.7359Z" fill="black"/>
    <path d="M65.6518 53.6198C65.6518 51.4147 67.4445 49.6738 69.6998 49.6738C71.8974 49.7318 73.6323 51.4727 73.6323 53.6779C73.6323 55.883 71.7817 57.682 69.5842 57.6239C67.3866 57.6239 65.5939 55.883 65.6518 53.6198Z" fill="black"/>
</svg>
