<?xml version="1.0" encoding="UTF-8" standalone="no"?>
<svg xmlns="http://www.w3.org/2000/svg" viewBox="0 0 80 60.15" width="80" height="60.15" fill="black">
<path d="m 76.3,38.35 v 9.6 h -25 l -6.6,-22.57 10.2,-7.21 -1.3,-1.93 9.3,-5.86 2.8,1.25 1.3,-3.84 3.7,-2.35 h 0.1 c 0.1,0 0.1,-0.1 0.1,-0.1 l 0.1,-0.1 c 0,0 0,0 0,0 0,0 0,0 0,0 l 2.7,-4.82 c 0,-0.1 0,-0.12 -0.1,-0.12 l -5.6,1.93 c -0.1,0 -0.1,0.1 -0.2,0.15 l -3,1.97 -3.6,-0.84 -0.4,3.48 -9.4,6.19 -1.4,-1.99 c 0.1,0 0.1,-0.1 0.1,-0.18 l 2.8,-5.09 c 0.1,-0.1 0,-0.15 0,-0.12 l -5.4,1.85 -1.6,-2.26 c 0,0 0,-0.1 0.1,-0.12 l 2.7,-5.09 c 0.1,-0.1 0.1,-0.15 0,-0.12 l -5.3,1.82 -1.3,-1.88 -42.1,29.75 12.8,18.1 29.3,-20.62 4.1,20.72 h -42.48 v -9.6 h -3.72 v 21.8 h 3.72 v -3.4 h 72.58 v 3.4 h 3.7 v -21.8 z" />
</svg>
