<svg width="80" height="60" viewBox="0 0 80 60" fill="none" xmlns="http://www.w3.org/2000/svg">
    <path d="M14.5768 48.4332C13.3716 48.4332 12.3386 48.4332 11.2482 48.4332C11.2482 48.1456 11.2482 47.9155 11.2482 47.6279C12.5108 47.6279 13.7733 47.6279 14.9785 47.6279C15.208 47.2252 15.3802 46.8801 15.6097 46.4775C17.1019 46.4775 18.594 46.4775 20.2009 46.4775C19.627 47.6279 19.0531 48.6633 18.4792 49.8137C18.7087 49.8137 18.8235 49.8712 18.9957 49.8712C20.7174 49.8712 22.4964 49.8712 24.2181 49.8712C24.5624 49.8712 24.8493 49.7562 25.0789 49.5261C26.858 47.8005 28.637 46.0748 30.4161 44.3492C30.703 44.0616 30.8178 43.774 30.9326 43.3713C31.4491 39.9775 31.9656 36.5262 32.5394 33.1324C32.5394 33.0174 32.5968 32.9024 32.6542 32.7298C33.9168 32.7298 35.122 32.7298 36.4419 32.7298C36.7862 34.2829 37.1879 35.7784 37.5323 37.4466C37.7618 37.274 37.934 37.1014 38.0488 36.9864C39.2539 35.836 40.4591 34.628 41.7217 33.4776C42.0086 33.19 42.1234 32.9599 42.1234 32.5572C42.1234 28.3006 42.1234 24.044 42.1234 19.7874C42.1234 19.4423 42.0086 19.2122 41.8364 18.9821C41.033 18.0618 40.2295 17.1414 39.4261 16.2211C39.3113 16.0485 39.1392 15.9335 38.9096 15.6459C39.9426 15.6459 40.8034 15.6459 41.779 15.6459C41.779 10.3539 41.779 5.17695 41.779 0C42.1808 0.747781 42.5251 1.49556 42.5825 2.35838C42.6973 4.83181 42.7547 7.30525 42.8694 9.77868C42.8694 10.2964 42.9268 10.8716 42.9268 11.3893C43.2138 11.4468 43.4433 11.5043 43.7303 11.5618C43.9598 12.8848 44.2468 14.2078 44.4763 15.6459C45.5667 15.6459 46.5997 15.6459 47.8049 15.6459C47.5753 15.9335 47.4605 16.1636 47.3458 16.3361C46.7145 17.199 46.0258 18.1193 45.3946 18.9821C45.2224 19.2122 45.165 19.4423 45.2224 19.7874C45.7963 22.8361 46.3128 25.9422 46.8866 28.9909C46.8866 29.1059 46.944 29.1635 47.0014 29.336C51.4204 29.336 55.8967 29.336 60.4304 29.336C60.2582 29.5661 60.2009 29.7387 60.0861 29.9112C59.1679 31.1767 58.307 32.4422 57.3314 33.6501C57.0445 34.0528 56.9871 34.3404 57.1593 34.8006C58.307 37.8492 59.3974 40.9554 60.4878 44.004C60.6026 44.4067 60.8321 44.6943 61.2339 44.9244C62.2095 45.4996 63.2425 46.1323 64.2181 46.7651C64.3902 46.8801 64.5624 46.9376 64.8494 47.1102C64.7346 45.327 64.6772 43.6589 64.5624 41.9333C65.7102 41.9333 66.7432 41.9333 67.891 41.9333C68.1205 42.3934 68.3501 42.9111 68.5796 43.4863C70.0144 43.4863 71.5064 43.4863 72.9986 43.4863C72.9986 43.8315 72.9986 44.0616 72.9986 44.4067C71.6786 44.4067 70.3587 44.4067 68.9813 44.4067C69.3257 45.212 69.6126 45.9023 69.8996 46.65C73.2281 46.3624 76.5567 46.0748 80 45.7297C79.8278 45.9598 79.7704 46.1323 79.6557 46.3049C76.5567 50.5615 73.4577 54.7606 70.4161 59.0172C70.1291 59.4198 69.8422 59.5349 69.3257 59.5349C63.9885 59.5349 58.7088 59.5349 53.3716 59.5349C36.7862 59.5349 20.2009 59.5349 3.5581 59.5349C3.27115 59.5349 2.92683 59.5349 2.5825 59.5349C1.72166 57.3491 0.860832 55.1632 0 52.9199C0.631277 52.8624 1.20517 52.8048 1.77906 52.7473C4.24678 52.5172 6.71449 52.2872 9.18221 52.1146C9.64132 52.0571 9.92825 51.942 10.1578 51.5394C10.1578 51.5394 10.1578 51.4819 10.2152 51.4819C10.5595 50.9642 10.9039 50.4465 11.3056 49.9863C11.9369 49.9863 12.5681 49.9863 13.142 49.9288C13.429 49.9288 13.6585 49.9288 13.9455 49.9288C14.0603 49.3535 14.2898 48.9509 14.5768 48.4332Z" fill="black"/>
</svg>
