<svg xmlns="http://www.w3.org/2000/svg" width="410" height="258" fill="none"><path fill="#FBB03B" d="M303.681 169.064H194.137v52.553h109.544v-52.553Z"/><path fill="#fff" d="M232.107 212.918h-7.291l-14.185-23.244v23.244h-7.291v-35.336h7.291l14.185 23.281v-23.281h7.254v35.336h.037Zm4.26-13.355c0-2.598.506-4.908 1.516-6.966 1.011-2.021 2.455-3.609 4.331-4.728 1.877-1.119 4.079-1.66 6.569-1.66 3.538 0 6.425 1.082 8.663 3.248 2.238 2.166 3.501 5.125 3.754 8.843l.036 1.805c0 4.042-1.119 7.255-3.357 9.709-2.238 2.418-5.27 3.645-9.059 3.645-3.79 0-6.822-1.227-9.06-3.645-2.274-2.418-3.393-5.739-3.393-9.89v-.361Zm7.002.506c0 2.49.47 4.403 1.408 5.739.938 1.335 2.274 1.985 4.043 1.985 1.696 0 3.031-.65 3.97-1.949.938-1.3 1.444-3.393 1.444-6.245 0-2.454-.47-4.331-1.444-5.702-.939-1.336-2.31-2.022-4.043-2.022-1.696 0-3.032.686-3.97 2.022-.938 1.299-1.408 3.356-1.408 6.172Zm43.385 3.32 3.429-16.711h6.786l-6.714 26.24h-5.883l-4.945-16.495-4.981 16.531h-5.847l-6.677-26.276h6.785l3.429 16.675 4.801-16.675h5.053l4.764 16.711Z"/><path fill="#444" d="M199.907 100.45v12.416h-7.255V77.603h13.752c2.635 0 4.981.469 7.002 1.443 2.021.975 3.574 2.346 4.62 4.115 1.083 1.769 1.624 3.826 1.624 6.1 0 3.465-1.191 6.172-3.537 8.157-2.382 1.985-5.63 2.996-9.817 2.996h-6.389v.036Zm0-5.883h6.497c1.913 0 3.393-.47 4.403-1.372 1.011-.902 1.516-2.202 1.516-3.862 0-1.733-.505-3.14-1.516-4.187-1.01-1.083-2.418-1.624-4.222-1.66h-6.678v11.08Zm37.647-1.336a16.569 16.569 0 0 0-2.526-.18c-2.635 0-4.368.902-5.198 2.67v17.145h-7.002V86.662h6.605l.181 3.14c1.407-2.418 3.356-3.61 5.847-3.61.758 0 1.516.11 2.166.326l-.073 6.713Zm1.516 6.316c0-2.598.506-4.908 1.516-6.966 1.011-2.02 2.455-3.609 4.332-4.728 1.876-1.119 4.078-1.66 6.569-1.66 3.537 0 6.424 1.083 8.662 3.248 2.238 2.166 3.501 5.09 3.754 8.807l.036 1.805c0 4.006-1.119 7.255-3.357 9.673-2.238 2.418-5.269 3.645-9.023 3.645-3.79 0-6.786-1.227-9.06-3.645-2.238-2.418-3.393-5.703-3.393-9.89v-.288h-.036Zm7.003.47c0 2.49.469 4.403 1.407 5.703.939 1.335 2.274 1.985 4.007 1.985 1.696 0 3.031-.65 3.97-1.949.938-1.3 1.444-3.393 1.444-6.245 0-2.454-.47-4.33-1.444-5.666-.939-1.336-2.31-2.022-4.007-2.022-1.696 0-3.031.65-3.97 1.986-.938 1.371-1.407 3.428-1.407 6.208Zm29.634-19.78v6.425h4.476v5.125h-4.476v13.066c0 .975.18 1.661.541 2.094.361.433 1.083.613 2.13.613.758 0 1.444-.072 2.057-.18v5.306c-1.371.433-2.779.613-4.223.613-4.908 0-7.399-2.49-7.507-7.435V91.751h-3.826v-5.125h3.826V80.2h7.002v.036Zm19.091 33.134c-3.826 0-6.966-1.191-9.384-3.537s-3.609-5.486-3.609-9.42v-.686c0-2.635.505-4.98 1.516-7.074 1.01-2.058 2.454-3.682 4.331-4.8 1.877-1.12 4.006-1.697 6.388-1.697 3.574 0 6.389 1.119 8.483 3.393 2.057 2.273 3.104 5.45 3.104 9.6v2.852h-16.676c.217 1.696.903 3.068 2.058 4.115 1.155 1.046 2.562 1.552 4.331 1.552 2.707 0 4.8-.975 6.316-2.924l3.429 3.862c-1.047 1.48-2.454 2.635-4.259 3.465-1.841.866-3.826 1.299-6.028 1.299Zm-.794-21.547c-1.371 0-2.526.469-3.392 1.407-.867.939-1.408 2.274-1.661 4.043h9.746v-.578c-.037-1.552-.47-2.743-1.264-3.61-.794-.83-1.949-1.263-3.429-1.263Zm25.917 15.881c1.299 0 2.346-.361 3.14-1.083s1.227-1.66 1.263-2.815h6.569c0 1.768-.505 3.392-1.444 4.872-.938 1.48-2.274 2.635-3.898 3.429-1.66.83-3.501 1.227-5.486 1.227-3.754 0-6.713-1.191-8.879-3.573-2.166-2.382-3.248-5.667-3.248-9.854v-.469c0-4.042 1.082-7.255 3.212-9.673 2.129-2.418 5.089-3.61 8.843-3.61 3.284 0 5.919.94 7.868 2.816 1.985 1.877 2.996 4.331 3.032 7.435h-6.569c-.036-1.371-.469-2.454-1.263-3.32-.794-.867-1.877-1.264-3.213-1.264-1.624 0-2.851.578-3.681 1.769-.83 1.191-1.263 3.104-1.263 5.775v.722c0 2.707.397 4.656 1.227 5.811.866 1.227 2.129 1.805 3.79 1.805Zm23.099-27.468v6.425h4.475v5.125h-4.475v13.066c0 .975.18 1.661.541 2.094.361.433 1.083.613 2.129.613.758 0 1.444-.072 2.058-.18v5.306c-1.372.433-2.779.613-4.223.613-4.909 0-7.399-2.49-7.508-7.435V91.751h-3.826v-5.125h3.826V80.2h7.003v.036Zm-123.693 47.355v23.209c0 3.862-1.191 6.894-3.609 9.167-2.418 2.238-5.703 3.357-9.89 3.357-4.115 0-7.399-1.083-9.817-3.284-2.419-2.166-3.646-5.162-3.718-8.988v-23.497h7.255v23.281c0 2.31.541 4.006 1.66 5.053 1.119 1.047 2.635 1.588 4.584 1.588 4.079 0 6.172-2.13 6.208-6.425v-23.461h7.327Zm14.546 24.761-2.527 2.526v7.977h-7.002v-37.177h7.002v20.61l1.372-1.733 6.713-7.868h8.41l-9.457 10.936 10.287 15.268h-8.049l-6.749-10.539Zm31.4-9.132a16.635 16.635 0 0 0-2.526-.181c-2.635 0-4.368.903-5.198 2.671v17.145h-7.002v-26.204h6.605l.18 3.14c1.408-2.418 3.357-3.609 5.848-3.609.758 0 1.516.108 2.165.325l-.072 6.713Zm17.941 19.635c-.325-.614-.542-1.408-.686-2.346-1.696 1.877-3.898 2.851-6.605 2.851-2.563 0-4.692-.758-6.389-2.238-1.696-1.479-2.526-3.356-2.526-5.63 0-2.779 1.047-4.909 3.104-6.389 2.057-1.48 5.017-2.238 8.915-2.238h3.212v-1.516c0-1.227-.324-2.165-.938-2.923-.614-.722-1.588-1.083-2.96-1.083-1.191 0-2.093.289-2.779.83-.686.578-1.011 1.336-1.011 2.31h-7.002c0-1.516.469-2.923 1.408-4.223.938-1.299 2.274-2.31 3.97-3.032 1.697-.721 3.646-1.119 5.775-1.119 3.213 0 5.775.795 7.688 2.419 1.913 1.624 2.852 3.898 2.852 6.858v11.369c0 2.491.36 4.367 1.046 5.631v.397h-7.074v.072Zm-5.811-4.873c1.047 0 1.985-.216 2.851-.685.866-.47 1.516-1.083 1.949-1.841v-4.512h-2.598c-3.502 0-5.378 1.227-5.595 3.645l-.036.398c0 .866.289 1.588.902 2.165.614.578 1.48.83 2.527.83Zm16.167-28.117c0-1.046.361-1.913 1.047-2.598.686-.686 1.66-1.011 2.888-1.011 1.191 0 2.129.325 2.851 1.011.722.685 1.083 1.552 1.083 2.598 0 1.083-.361 1.949-1.083 2.599-.722.686-1.66 1.011-2.851 1.011-1.192 0-2.13-.325-2.852-1.011-.722-.65-1.083-1.516-1.083-2.599Zm7.436 32.99h-7.039v-26.204h7.039v26.204Zm11.442-26.204.217 3.032c1.876-2.346 4.367-3.501 7.543-3.501 2.779 0 4.837.83 6.208 2.454 1.372 1.624 2.058 4.079 2.094 7.327v16.892h-7.003v-16.748c0-1.479-.324-2.562-.974-3.248-.65-.686-1.733-1.011-3.212-1.011-1.986 0-3.465.831-4.44 2.527v18.48h-7.002v-26.204h6.569Zm32.487 26.709c-3.826 0-6.966-1.191-9.384-3.537s-3.61-5.486-3.61-9.42v-.686c0-2.635.506-4.981 1.516-7.075 1.011-2.057 2.455-3.681 4.332-4.8 1.876-1.119 4.006-1.696 6.388-1.696 3.573 0 6.389 1.118 8.482 3.392 2.058 2.274 3.104 5.451 3.104 9.601v2.852h-16.747c.216 1.696.902 3.068 2.057 4.114 1.155 1.047 2.563 1.552 4.331 1.552 2.707 0 4.801-.974 6.317-2.923l3.429 3.862c-1.047 1.48-2.455 2.635-4.259 3.465-1.805.866-3.79 1.299-5.956 1.299Zm-.794-21.548c-1.371 0-2.526.47-3.393 1.408-.866.938-1.407 2.274-1.66 4.042h9.745v-.577c-.036-1.552-.469-2.743-1.263-3.609-.794-.831-1.949-1.264-3.429-1.264Z"/><path fill="#FBB03B" d="m159.088 53.492-.866 3.681-.722 3.105-18.913-12.02-18.516-3.176-18.48 3.176-18.913 12.02-.722-3.105-.866-3.681L99.1 40.426l20.971-4.187 21.007 4.187 18.01 13.066Z"/><path fill="#444" d="m185.689 63.237-1.48-6.46.686-5.559-16.82 9.529-6.966 5.92-3.97 3.789 1.444-5.739 2.274-1.805.361-3.862 1.515-4.584-1.407-1.949-2.96.433-2.563 6.497-.649 4.476-.145.758-7.471 4.8-8.843 9.638-1.588 7.038-9.06 4.331-.18.144-3.032-1.19V85.76l2.166-5.234.361-7.652-3.465-4.403-3.826-.686-3.79.686-3.465 4.403.361 7.652 2.165 5.234v3.681l-3.032 1.191-.18-.144-9.06-4.331-1.588-7.038-8.843-9.638-7.471-4.8-.144-.758-.65-4.476-2.563-6.497-2.96-.433-1.407 1.95 1.516 4.583.36 3.862 2.275 1.805 1.443 5.739-4.042-3.357-6.894-6.352-16.82-9.529.686 5.558-1.48 6.461v2.274l4.331 1.95-.902 4.403 6.677 5.45 1.95 5.667 9.06 5.053 11.585 23.316 18.011 18.48-4.403 13.066-3.646 52.877 10.467 23.606h24.941l10.467-23.606-3.645-52.877-4.44-13.066 18.047-18.48 11.586-23.316 9.06-5.053 1.949-5.667 6.677-5.45-.902-4.404 4.331-1.949v-2.274Z"/></svg>