<?xml version="1.0" encoding="UTF-8" standalone="no"?>
<svg xmlns="http://www.w3.org/2000/svg" viewBox="0 0 80 47.98" width="80" height="47.98" fill="black">
<path d="m 11.1,0 -11.1,26.74 5.8,2.68 -2.7,4.04 c 0,0.13 0.2,6.99 0.3,6.99 h 3.1 a 6.238,6.267 0 0 1 5.7,-3.76 6.238,6.267 0 0 1 5.8,3.89 h 1.5 a 6.238,6.267 0 0 1 5.7,-3.89 6.238,6.267 0 0 1 5.8,3.89 h 0.8 l 0.7,1.89 h 13.2 l 0.6,-1.89 h 0.8 a 6.238,6.267 0 0 1 5.8,-3.89 6.238,6.267 0 0 1 5.7,3.89 h 1.6 a 6.238,6.267 0 0 1 5.8,-3.89 6.238,6.267 0 0 1 5.8,4.03 h 1.4 c 0.1,0 6.8,-4.17 6.8,-4.17 l -2.3,-16.13 c 0,-0.13 -18.5,-0.13 -18.6,-0.13 0,0 -0.3,1.34 -1.1,3.22 l -8.5,-0.13 -1,-1.88 c 0,0 0,-0.14 -0.1,-0.14 h -4.4 l -0.6,-21.0912 v -0.2688 h -1.2 v 0.2688 l -0.1,21.0912 h -3.2 c -0.1,0 -0.1,0.14 -0.1,0.14 l -0.4,3.62 -0.9,0.41 -1.1,6.85 h -14.9 l -1.7,-4.7 h -1.9 l -3.7,-10.49 5.5,-13.695 z m 2.6,18.54 2.9,9.14 h -6.6 z m -1.5,19.49 a 4.961,4.931 0 0 0 -4.9,4.97 4.961,4.931 0 0 0 4.9,4.98 4.961,4.931 0 0 0 5,-4.98 4.961,4.931 0 0 0 -5,-4.97 z m 13,0 a 4.961,4.931 0 0 0 -4.9,4.97 4.961,4.931 0 0 0 5,4.98 4.961,4.931 0 0 0 4.9,-4.98 4.961,4.931 0 0 0 -4.9,-4.97 4.961,4.931 0 0 0 -0.1,0 z m 27.6,0 a 4.961,4.931 0 0 0 -4.9,4.97 4.961,4.931 0 0 0 5,4.98 4.961,4.931 0 0 0 4.9,-4.98 4.961,4.931 0 0 0 -4.9,-4.97 4.961,4.931 0 0 0 -0.1,0 z m 13.2,0 a 4.961,4.931 0 0 0 -5,4.97 4.961,4.931 0 0 0 5,4.98 4.961,4.931 0 0 0 5,-4.98 4.961,4.931 0 0 0 -5,-4.97 z" />
</svg>
