<?xml version="1.0" encoding="UTF-8" standalone="no"?>
<svg xmlns="http://www.w3.org/2000/svg" viewBox="0 0 80 48.56" width="80" height="48.56" fill="black">
<path d="m 47.1,0 v 0.6 h -2 v 2.41 h 7.3 v 1.51 h -9.5 l -0.4,2.71 h -9.2 l -0.3,1.81 h -11.8 l -0.7,-1.81 h -14.83 l -0.24,1.81 h -4.22 l 2.35,19.59 -3.56,6.33 4.61,2.71 a 6.902,8.831 0 0 0 -0.18,2.11 6.902,8.831 0 0 0 6.27,8.78 v 0 h 0.6 55.6 a 6.902,8.831 0 0 0 5.3,-3 v 0 l 4.1,-5.78 h 0.1 v -0.3 l 2.8,-3.91 0.8,-3.32 v 0 0 -0.3 h -0.1 l -11.5,-22.61 h -8.5 l -2.2,-4.82 h -2.9 v -1.51 h 6.1 v 0 h 3.2 l -0.1,-0.6 h 6.7 l -0.1,-0.9 h -7 l -0.2,-0.61 h -2.6 v -0.3 h -7 v -0.6 z m -35.7,36.77 a 5.184,5.184 0 0 1 4.6,3.01 5.184,5.184 0 0 1 4.7,-3.01 5.184,5.184 0 0 1 4.6,3.01 5.184,5.184 0 0 1 4.7,-3.01 5.184,5.184 0 0 1 4.6,3.01 h 0.1 a 5.184,5.184 0 0 1 4.6,-3.01 5.184,5.184 0 0 1 4.6,3.01 5.184,5.184 0 0 1 4.7,-3.01 5.184,5.184 0 0 1 4.7,3.01 5.184,5.184 0 0 1 4.6,-3.01 5.184,5.184 0 0 1 4.7,3.01 5.184,5.184 0 0 1 4.6,-3.01 5.184,5.184 0 0 1 5.2,5.12 5.184,5.184 0 0 1 -5.2,5.17 5.184,5.184 0 0 1 -4.7,-2.8 5.184,5.184 0 0 1 -4.6,2.8 5.184,5.184 0 0 1 -4.7,-2.8 5.184,5.184 0 0 1 -4.6,2.8 5.184,5.184 0 0 1 -4.6,-2.8 5.184,5.184 0 0 1 -4.7,3.1 5.184,5.184 0 0 1 -4.6,-3.1 5.184,5.184 0 0 1 -4.7,3.1 5.184,5.184 0 0 1 -4.7,-3.1 5.184,5.184 0 0 1 -4.6,2.8 5.184,5.184 0 0 1 -4.7,-2.8 5.184,5.184 0 0 1 -4.6,2.8 5.184,5.184 0 0 1 -5.19,-5.17 5.184,5.184 0 0 1 5.19,-5.12 z m 0,1.21 a 4.129,4.099 0 0 0 -4.14,3.91 4.129,4.099 0 0 0 4.14,4.27 4.129,4.099 0 0 0 4.1,-4.27 4.129,4.099 0 0 0 -4.1,-3.91 z m 9.3,0 a 4.129,4.099 0 0 0 -4.1,3.91 4.129,4.099 0 0 0 4.1,4.27 4.129,4.099 0 0 0 4.1,-4.27 4.129,4.099 0 0 0 -4.1,-3.91 z m 27.9,0 a 4.129,4.099 0 0 0 -4.1,3.91 4.129,4.099 0 0 0 4.1,4.27 4.129,4.099 0 0 0 4.1,-4.27 4.129,4.099 0 0 0 -4.1,-3.91 z m 9.3,0 a 4.129,4.099 0 0 0 -4.1,3.91 4.129,4.099 0 0 0 4.1,4.27 4.129,4.099 0 0 0 4.2,-4.27 4.129,4.099 0 0 0 -4.2,-3.91 z m 9.3,0 a 4.129,4.099 0 0 0 -4.1,3.91 4.129,4.099 0 0 0 4.1,4.27 4.129,4.099 0 0 0 4.1,-4.27 4.129,4.099 0 0 0 -4.1,-3.91 z m -37.2,0 a 4.129,4.099 0 0 0 -4.1,4.22 4.129,4.099 0 0 0 4.1,3.96 4.129,4.099 0 0 0 4.1,-3.96 4.129,4.099 0 0 0 -4.1,-4.22 z m 9.3,0 a 4.129,4.099 0 0 0 -4.1,4.22 4.129,4.099 0 0 0 4.1,3.96 4.129,4.099 0 0 0 4.1,-3.96 4.129,4.099 0 0 0 -4.1,-4.22 z" />
</svg>
