<svg width="80" height="61" viewBox="0 0 80 61" fill="none" xmlns="http://www.w3.org/2000/svg">
    <path d="M0 51.1087C0 50.8751 0 50.6999 0 50.5246C0 47.4289 0 44.3332 0 41.2959C0 40.887 0.116367 40.5949 0.349094 40.2445C2.44364 37.324 4.53818 34.4619 6.63272 31.5414C6.74909 31.3662 6.86545 31.1325 6.92363 30.8989C7.21454 29.9059 7.56364 28.9714 7.85455 27.92C8.08727 27.92 8.31999 27.8616 8.55272 27.8616C17.4545 27.8032 26.2982 27.7447 35.2 27.6863C35.8982 27.6863 36.5964 27.5695 37.2945 27.3359C38.2255 26.9854 39.1564 26.7518 40.0873 26.4013C40.5527 26.2261 41.0182 26.1677 41.5418 26.4013C42.0654 26.635 42.4727 26.5181 42.9964 26.2261C45.2654 24.649 47.5927 23.0719 49.92 21.4949C50.2691 21.2612 50.56 21.0276 51.0254 21.2612C51.3164 21.3781 51.4909 21.1444 51.7236 20.9692C53.4691 19.6842 55.2145 18.3407 56.96 16.9973C62.3709 12.9086 67.7818 8.87832 73.1927 4.78962C73.3673 4.6728 73.5418 4.49757 73.7745 4.32234C73.7164 3.91347 73.6582 3.5046 73.6 3.03732C74.9964 2.04435 76.3927 1.05138 77.7891 0C78.3127 0.29205 78.8364 0.5841 79.3018 0.87615C79.4182 0.99297 79.5927 1.1682 79.5927 1.28502C79.7673 1.86912 79.8836 2.51163 80 3.15414C78.6618 4.20552 77.2654 5.19849 75.8691 6.24987C75.5782 6.07464 75.2291 5.89941 74.9382 5.66577C67.5491 11.682 60.16 17.6982 52.7709 23.7729C53.0036 24.357 52.6545 24.649 52.3054 25.0579C50.3273 26.8686 48.3491 28.7377 46.3709 30.5484C46.0218 30.8405 45.9055 31.1909 46.0218 31.5998C46.08 31.775 46.08 31.9503 46.08 32.0671C46.1382 32.4175 46.0218 32.7096 45.7891 32.9432C44.5673 34.2867 43.3455 35.6301 42.1818 36.9735C42.0073 37.1488 41.8909 37.324 41.7164 37.5576C42.5891 37.9081 43.4618 38.2585 44.2764 38.609C44.6836 38.7842 45.0909 38.9595 45.2654 39.3683C45.8473 40.4197 46.7782 40.6533 47.9418 40.6533C55.9709 40.5949 64 40.6534 71.9709 40.5949C72.5527 40.5949 73.0764 40.7702 73.5418 41.179C75.52 42.8145 77.4982 44.45 79.4764 46.0855C79.6509 46.2607 79.8255 46.3775 80 46.5528C79.8836 46.7864 79.7673 47.02 79.6509 47.1953C78.6036 49.006 77.5564 50.7583 76.5091 52.569C76.3345 52.861 76.2182 53.2115 76.2182 53.5035C76.0436 57.1834 73.4254 59.8702 69.76 60.1039C69.5273 60.1039 69.2945 60.1039 69.0618 60.1039C49.6291 60.1039 30.2545 60.1039 10.8218 60.1039C7.62182 60.1039 4.94544 58.0011 4.18908 54.9054C4.1309 54.5549 4.01454 54.2045 4.01454 53.854C4.01454 53.4451 3.84 53.2699 3.49091 53.0947C2.32727 52.5106 1.16364 51.8097 0 51.1087ZM64.8727 56.0736C66.9091 59.3446 70.4582 59.2277 72.4364 57.6507C74.6473 55.8984 75.0545 52.6274 73.2509 50.4662C72.32 49.3564 71.1564 48.7139 69.76 48.6555C67.6073 48.5387 66.0364 49.5317 64.8727 51.3424C62.8945 48.013 58.1818 47.4873 55.7964 51.4008C55.7382 51.284 55.6218 51.2256 55.5636 51.1087C53.5273 47.8378 48.8727 47.8962 46.8945 51.2256C46.72 51.576 46.4873 51.6928 46.08 51.6344C45.0327 51.6344 43.9854 51.6344 42.9382 51.6344C42.4727 51.6344 42.24 51.5176 41.9491 51.1087C39.9127 47.9546 35.5491 47.9546 33.5127 51.0503C33.3964 51.2256 33.28 51.3424 33.1636 51.5176C31.36 48.2466 26.5309 47.5457 24.1455 51.4008C22.1673 47.9546 17.3964 47.6625 15.0691 51.4592C14.2545 50.0573 13.0909 49.0644 11.4618 48.8307C9.83272 48.5387 8.37817 49.006 7.15636 50.1158C5.06181 52.0433 5.00364 55.3143 6.98182 57.3586C7.97091 58.3516 9.19272 58.8773 10.5891 58.8773C12.6254 58.8773 14.08 57.8259 15.1273 56.132C17.0473 59.5782 21.8764 59.9871 24.1455 56.3072C26.24 59.8702 31.0691 59.8702 33.2218 56.2488C34.2691 58.0011 35.7818 59.0525 37.8182 58.9941C39.9127 58.9357 41.3673 57.8843 42.3564 56.0736C43.5782 56.0736 44.8 56.0736 46.0218 56.0736C46.4873 56.0736 46.7782 56.2488 47.0691 56.6577C49.0473 59.695 53.4109 59.7534 55.4473 56.7161C55.5636 56.5409 55.68 56.3656 55.7964 56.1904C57.8909 59.5198 62.6036 59.7534 64.8727 56.0736Z" fill="black"/>
    <path d="M10.6474 49.7069C12.8583 49.7069 14.6619 51.4592 14.6619 53.6788C14.6619 55.84 12.9164 57.6507 10.7055 57.6507C8.49463 57.6507 6.69099 55.9568 6.63281 53.7372C6.69099 51.5177 8.43645 49.7653 10.6474 49.7069Z" fill="black"/>
    <path d="M32.7561 53.7955C32.7561 55.9567 30.9524 57.709 28.7997 57.709C26.5888 57.709 24.7852 55.8983 24.7852 53.7371C24.7852 51.5176 26.647 49.7653 28.7997 49.7653C31.0106 49.8237 32.7561 51.576 32.7561 53.7955Z" fill="black"/>
    <path d="M47.3027 53.6788C47.3027 51.4592 49.1064 49.7069 51.3173 49.7069C53.5282 49.7069 55.2737 51.4592 55.2737 53.6204C55.2737 55.7816 53.47 57.5923 51.2591 57.6507C49.0482 57.6507 47.3027 55.8984 47.3027 53.6788Z" fill="black"/>
    <path d="M64.2912 53.7372C64.2912 55.9568 62.4876 57.7091 60.2767 57.6507C58.124 57.6507 56.3203 55.84 56.3203 53.6788C56.3203 51.5177 58.1239 49.7069 60.3349 49.7069C62.5458 49.7069 64.3494 51.5177 64.2912 53.7372Z" fill="black"/>
    <path d="M15.709 53.6787C15.709 51.4591 17.5126 49.7068 19.7235 49.7653C21.9344 49.7653 23.6799 51.576 23.6799 53.7371C23.6799 55.8983 21.8763 57.709 19.6653 57.709C17.4544 57.6506 15.709 55.8983 15.709 53.6787Z" fill="black"/>
    <path d="M41.7742 53.7371C41.7742 55.9567 40.0287 57.709 37.7597 57.709C35.5487 57.709 33.7451 55.8983 33.7451 53.7371C33.7451 51.576 35.5487 49.7653 37.7015 49.7653C39.9706 49.7653 41.7742 51.5176 41.7742 53.7371Z" fill="black"/>
    <path d="M65.3975 53.6788C65.3975 51.4592 67.1429 49.7069 69.412 49.7069C71.6229 49.7069 73.4265 51.5177 73.4265 53.6788C73.4265 55.84 71.6229 57.5923 69.4702 57.5923C67.2011 57.6507 65.3975 55.8984 65.3975 53.6788Z" fill="black"/>
</svg>
