<svg width="80" height="41" viewBox="0 0 80 41" fill="none" xmlns="http://www.w3.org/2000/svg">
    <path d="M1.88678 12.8148C2.04695 12.7596 2.20713 12.7044 2.36731 12.7044C3.64873 12.7596 4.87676 12.3729 6.05139 11.9863C7.59977 11.4892 9.09476 11.3234 10.6965 11.4339C12.939 11.5444 15.1815 11.5996 17.3706 11.5996C18.2783 11.5996 19.1859 11.3787 20.0402 11.213C22.0157 10.8263 23.9913 10.4397 25.9134 10.053C26.0202 10.053 26.0736 9.99778 26.2338 9.94254C26.1804 9.7216 26.1804 9.55589 26.127 9.33494C24.7922 9.2797 23.5107 9.22447 22.1225 9.16924C22.87 6.95978 23.6175 4.86079 24.4184 2.65134C25.0057 2.65134 25.593 2.65134 26.1804 2.65134C26.6075 2.65134 26.9813 2.59611 27.1414 2.15421C27.5152 1.27043 28.1559 0.994258 29.0636 1.15997C29.117 1.15997 29.2237 1.15997 29.2771 1.15997C30.3984 1.32568 31.3594 1.04949 32.2137 0.220942C32.3739 0.055233 32.6942 0 32.9078 0C35.0969 0.0552364 37.3394 0.165709 39.5285 0.276182C39.9556 0.276182 40.3294 0.441887 40.6497 0.773306C41.1837 1.32567 41.771 1.87803 42.3049 2.4304C42.5719 2.70658 42.8388 2.81705 43.1592 2.76182C43.3194 2.70658 43.5329 2.76181 43.6931 2.70658C44.7076 2.54087 45.5618 2.70658 46.2025 3.6456C46.4161 3.97702 46.7365 3.97701 47.0568 4.03225C47.3772 4.08748 47.6975 4.03225 47.9111 4.41891C47.9645 4.52938 48.1247 4.52937 48.2849 4.52937C51.702 4.63984 55.0657 4.75032 58.4828 4.80555C58.4828 4.80555 58.5362 4.80557 58.5896 4.75033C58.6964 4.52938 58.7498 4.30843 58.91 4.03225C59.5507 4.08748 60.138 4.14273 60.7253 4.19797C61.1524 5.35793 61.1524 5.52364 60.7253 6.95978C60.138 6.95978 59.4973 6.95978 58.8566 6.95978C58.8032 6.73884 58.6964 6.51789 58.643 6.29694C57.8955 6.29694 57.0946 6.2417 56.3471 6.29694C53.7309 6.40741 51.1147 6.51789 48.5518 6.6836C48.2315 6.6836 47.9111 6.62836 47.7509 7.07025C47.6975 7.18072 47.4306 7.23597 47.2704 7.23597C46.7899 7.23597 46.4695 7.51213 46.2025 7.84355C45.9356 8.11973 45.6152 8.39592 45.2949 8.72734C45.5084 8.83781 45.6686 8.94828 45.8288 9.00352C48.1247 10.053 50.4206 11.1025 52.7164 12.152C53.0368 12.3177 53.4105 12.3729 53.7843 12.3729C56.881 12.4834 60.0312 12.5386 63.128 12.5939C63.5551 12.5939 63.9823 12.7044 64.356 12.8701C69.3215 14.969 74.287 17.068 79.3059 19.167C79.5195 19.2775 79.733 19.388 80 19.4984C78.5584 23.8621 77.1168 28.1705 75.6752 32.5342C74.7675 32.5342 73.8599 32.5342 72.8988 32.5342C72.1513 28.9438 70.069 26.6792 66.4917 26.0163C64.8365 25.7401 63.2348 26.0715 61.7932 26.9001C60.3516 27.7286 59.2837 28.9438 58.5362 30.5457C56.6675 27.342 54.0513 25.6849 50.5273 26.2925C47.1102 26.8449 45.1347 29.1096 44.2804 32.5342C41.0769 32.5342 37.9267 32.5342 34.6698 32.5342C33.8689 28.9991 31.84 26.5687 28.2627 26.0163C24.7388 25.464 22.1225 27.121 20.3072 30.38C18.7054 27.3972 16.3027 25.7401 12.9924 25.9611C9.68208 26.182 7.54638 28.1153 6.26496 31.319C6.10478 31.2085 5.998 31.1533 5.9446 31.0428C4.07587 29.1648 2.20713 27.2868 0.338392 25.4087C0.0180372 25.1325 -0.0353545 24.8011 0.018038 24.4145C0.605355 20.8793 1.13928 17.3442 1.6732 13.8091C1.77999 13.4224 1.83338 13.091 1.88678 12.8148Z" fill="black"/>
    <path d="M27.1949 39.8255C23.8846 39.8255 21.215 37.0636 21.2684 33.6942C21.2684 30.3248 23.9914 27.563 27.2483 27.563C30.5053 27.563 33.2283 30.38 33.1749 33.7495C33.2283 37.1189 30.5053 39.8807 27.1949 39.8255Z" fill="black"/>
    <path d="M65.3169 39.8255C62.0065 39.8255 59.3369 37.0636 59.3369 33.6942C59.3369 30.3248 62.0599 27.563 65.3169 27.563C68.5738 27.563 71.2968 30.38 71.2968 33.7495C71.3502 37.1189 68.6272 39.8807 65.3169 39.8255Z" fill="black"/>
    <path d="M51.6489 27.8391C54.9592 27.8391 57.6289 30.5457 57.6289 33.9703C57.6289 37.3398 54.9592 40.1016 51.6489 40.1568C48.392 40.1568 45.6689 37.395 45.6689 34.0256C45.6689 30.6009 48.3386 27.8391 51.6489 27.8391Z" fill="black"/>
    <path d="M19.4524 33.7496C19.4524 37.1743 16.7828 39.8808 13.4725 39.8808C10.1621 39.8808 7.5459 37.1743 7.5459 33.7496C7.5459 30.3802 10.2155 27.6184 13.5259 27.6184C16.7828 27.5631 19.4524 30.325 19.4524 33.7496Z" fill="black"/>
</svg>
