<svg width="78" height="80" viewBox="0 0 78 80" fill="none" xmlns="http://www.w3.org/2000/svg">
    <path d="M43.7703 72.0714C42.6645 72.0714 41.5587 72.0714 40.453 72.0714C40.374 72.9435 40.295 73.8157 40.216 74.7671C40.532 74.8464 40.7689 74.9257 41.0059 75.005C41.0848 76.115 41.0848 76.115 41.7167 76.1943C41.7167 75.8771 41.7167 75.4807 41.7167 75.1635C41.7167 74.8464 41.7167 74.5292 41.7957 73.9742C42.1906 74.6878 42.2696 77.78 41.9537 78.89C41.8747 78.6521 41.7167 78.4936 41.7167 78.4143C41.7167 77.9386 41.7167 77.5421 41.7167 77.0664C41.7167 76.67 41.4798 76.5907 41.0848 76.7493C41.0058 77.1457 41.0059 77.4628 40.9269 77.9385C40.6109 77.9385 40.295 77.8593 39.9001 77.8593C39.8211 78.5728 39.6631 79.2864 39.5841 80C39.1102 80 38.7153 80 38.1624 80C38.0834 79.2864 38.0044 78.5728 37.9255 77.9385C37.9255 77.4628 37.6885 77.1457 37.2146 77.0664C36.7407 76.9078 36.2668 76.8285 35.7139 76.67C35.7139 76.115 35.7139 75.56 35.7139 75.005C36.3458 75.005 36.8987 74.9257 37.5305 74.9257C37.4516 73.9742 37.2936 73.0228 37.2146 72.0714C36.1088 72.0714 35.161 72.0714 34.2132 72.0714C33.9763 72.0714 33.7393 72.3885 33.4234 72.6264C33.2654 71.6749 33.3444 70.7235 33.4234 69.772C33.8973 70.5649 34.6081 70.327 35.24 70.4063C35.8719 70.4063 36.4248 70.4063 37.0566 70.4063C36.5038 65.1734 36.0299 60.0991 35.477 55.0248C35.24 52.6462 35.003 50.2676 34.7661 47.8097C34.7661 47.4133 34.6081 47.0961 34.4502 46.6997C33.7393 44.7175 32.9495 42.7354 32.1596 40.7532C32.0806 40.5154 31.9227 40.1982 31.8437 39.9604C31.4488 39.8811 31.1328 39.8811 30.6589 39.8018C30.6589 39.3261 30.5799 38.7711 30.5799 38.216C29.3162 38.216 28.2104 37.9782 27.0256 38.8503C19.996 44.1625 12.9665 49.4747 5.93686 54.7076C5.77889 54.7869 5.69991 54.8662 5.54194 55.0248C4.12022 56.6898 2.22461 56.3726 0.25 56.2141C1.03984 54.8662 1.27679 53.5183 2.61953 52.5669C9.41217 47.8097 16.1258 42.9732 22.8395 38.216C23.7873 37.5025 24.8141 36.8682 25.7619 36.1546C25.9199 35.996 26.0778 35.9167 26.3148 35.6789C26.0778 35.5203 25.8409 35.441 25.6829 35.3617C24.7351 35.0446 23.7873 34.7275 22.8395 34.331C21.6547 33.8553 20.391 33.6174 19.1272 33.6967C18.7323 33.6967 18.3374 33.6967 17.7845 33.6967C17.9425 32.9831 18.0214 32.4281 18.1794 31.9524C18.4953 30.7631 18.7323 30.6046 19.9961 30.6046C20.154 30.6046 20.233 30.6046 20.47 30.5253C20.47 30.1288 20.47 29.6531 20.47 29.2567C20.47 29.0188 20.5489 28.781 20.6279 28.6224C20.8649 28.4638 21.1808 28.3845 21.4178 28.4638C21.5757 28.5431 21.8127 28.781 21.8127 29.0188C21.8917 29.4946 21.8127 29.9703 21.8127 30.5253C24.1822 30.5253 26.4728 30.5253 28.9213 30.5253C28.9213 29.6531 28.9213 28.781 28.9213 27.8295C29.7901 27.8295 30.5799 27.8295 31.4488 27.8295C31.4488 28.7017 31.4488 29.4946 31.4488 30.446C32.1596 30.2874 32.7125 30.1288 33.3444 29.9703C33.3444 28.7017 33.3444 27.5124 33.3444 26.3231C33.3444 26.0852 33.0284 25.8474 32.7915 25.6095C29.6321 23.3102 26.4728 21.0902 23.3134 18.8702C18.1794 15.223 12.9665 11.4965 7.83249 7.84936C6.17382 6.66007 4.51515 5.47077 2.85648 4.28147C2.46156 3.96433 2.14563 3.56789 1.90867 3.17146C1.35578 2.22002 0.960855 1.26858 0.407966 0.15857C1.35578 0.237857 2.14562 0.317148 2.93546 0.237862C4.04124 0.158575 4.83109 0.555003 5.62093 1.34787C10.123 5.47076 15.178 8.88009 19.9961 12.6065C23.7083 15.4609 27.4995 18.1566 31.2118 21.0109C32.1596 21.7245 33.0284 21.883 34.1342 21.5659C34.3712 20.3766 34.5291 19.108 34.7661 17.8394C35.003 16.0951 35.319 14.4301 35.5559 12.6858C35.6349 12.1308 35.7929 11.8137 36.4248 11.9723C36.6617 10.6244 36.8197 9.43508 37.0566 8.08721C38.2414 8.08721 39.4262 8.08721 40.6899 8.08721C40.8479 9.03865 41.0059 9.99009 41.1638 10.9415C41.3218 11.7344 41.3218 11.7344 42.1116 12.0515C42.6645 15.1437 43.1384 18.3152 43.6913 21.4866C44.7181 21.8038 45.5869 21.6452 46.4558 21.0109C53.3274 15.778 60.278 10.6244 67.2286 5.39148C68.9662 4.04361 70.7039 2.61646 72.4416 1.26859C72.7575 1.03073 73.2314 0.792871 73.6263 0.713585C74.6531 0.475726 75.6799 0.237859 76.9437 0C76.8647 0.396432 76.7857 0.71358 76.7067 1.03073C76.3908 1.98216 76.2328 3.01289 75.6799 3.80575C75.127 4.51933 74.1792 4.91576 73.3894 5.47077C66.2808 10.4658 59.0932 15.4609 51.9847 20.4559C49.6941 22.1209 47.4036 23.7859 45.034 25.3717C44.5601 25.6888 44.4022 26.0852 44.4022 26.6402C44.4812 27.671 44.4022 28.7017 44.4022 29.8117C45.034 29.9703 45.5079 30.0495 46.2188 30.2874C46.2188 29.336 46.2188 28.4638 46.2188 27.5917C47.0876 27.5917 47.8775 27.5917 48.7463 27.5917C48.7463 28.4638 48.7463 29.4153 48.7463 30.3667C51.1948 30.3667 53.4854 30.3667 55.8549 30.3667C55.8549 29.9703 55.8549 29.4945 55.8549 29.0981C55.8549 28.5431 56.0918 28.3052 56.5657 28.3052C57.0396 28.3052 57.1976 28.5431 57.2766 29.0981C57.2766 29.4945 57.2766 29.891 57.2766 30.3667C57.5925 30.3667 57.8295 30.446 58.0664 30.446C58.6983 30.3667 59.0932 30.6046 59.3302 31.1596C59.6461 31.8731 59.8831 32.5867 59.8041 33.5382C59.0932 33.5382 58.3824 33.5382 57.5925 33.5382C57.2766 33.5382 56.8817 33.4589 56.5657 33.6174C54.8281 34.1725 53.1694 34.7275 51.3528 35.3617C51.5897 35.5996 51.6687 35.7582 51.8267 35.9167C58.3824 40.5946 64.8591 45.1933 71.4148 49.8712C72.7575 50.8226 74.1002 51.6947 75.443 52.7255C75.7589 52.9633 76.0748 53.3598 76.3118 53.6769C76.8647 54.6283 77.2596 55.5798 77.8125 56.6105C77.1016 56.6105 76.4698 56.5312 75.8379 56.6105C74.3372 56.7691 73.1524 56.1348 72.0466 55.1041C68.6503 51.9326 64.7801 49.3954 61.0678 46.5411C57.5925 43.9247 54.1172 41.3082 50.6419 38.6918C49.9311 38.1368 49.2992 37.8989 48.4304 37.9782C48.0354 38.0575 47.6405 37.9782 47.0876 37.9782C47.0087 38.5332 47.0087 39.0882 46.9297 39.6432C46.4558 39.7225 46.0608 39.7225 45.6659 39.8018C45.5079 40.1189 45.429 40.3568 45.35 40.6739C44.7181 42.2597 44.1652 43.8454 43.5333 45.3518C43.0594 46.4618 42.8225 47.6511 42.7435 48.8404C42.3486 52.5669 42.0326 56.2934 41.6377 60.0991C41.3218 63.4291 41.0059 66.7592 40.6109 70.1685C41.6377 70.1685 42.6645 70.1685 43.7703 70.1685C43.8493 70.0099 44.0073 69.8513 44.0862 69.6135C44.1652 69.6135 44.2442 69.6135 44.2442 69.6135C44.3232 70.5649 44.3232 71.5163 44.0862 72.4678C44.0073 72.4678 43.8493 72.3092 43.7703 72.0714Z" fill="black"/>
</svg>
