<svg width="80" height="50" viewBox="0 0 80 50" fill="none" xmlns="http://www.w3.org/2000/svg">
    <path d="M3.21387 26.1553C3.21387 17.4369 3.21387 8.71843 3.21387 0C20.1312 0 36.9907 0 53.8501 0C53.8501 8.71843 53.8501 17.4369 53.8501 26.1553C36.9907 26.1553 20.1312 26.1553 3.21387 26.1553Z" fill="black"/>
    <path d="M26.3302 40.3155C24.4762 37.0387 21.7532 35.4589 18.0453 35.927C16.2493 36.161 14.685 37.0387 13.4683 38.443C12.2517 39.8474 11.6723 41.4857 11.4985 43.3581C10.3977 43.3581 9.41279 43.3581 8.36994 43.3581C7.84851 43.3581 7.26915 43.4752 6.80566 43.2996C6.40011 43.0656 6.11043 42.539 5.82075 42.0709C3.96679 39.5548 2.11283 36.9802 0.258868 34.5227C-0.0308128 34.1131 -0.0887472 33.8205 0.142998 33.3524C0.954105 31.8311 1.76521 30.2512 2.57632 28.7299C2.69219 28.4958 2.866 28.2033 3.03981 27.9107C20.4786 27.9107 37.9174 27.9107 55.4141 27.9107C55.4141 23.4637 55.4141 19.1338 55.4141 14.8038C55.7038 14.8038 55.9356 14.7453 56.1094 14.7453C61.3236 14.7453 66.5958 14.7453 71.8101 14.7453C72.2736 14.7453 72.5053 14.9208 72.7371 15.3304C75.0545 19.3678 77.4299 23.3467 79.7474 27.3841C79.9791 27.7352 80.037 28.0863 79.9791 28.4958C79.0521 33.3524 78.0672 38.1505 77.1402 43.0071C77.1402 43.1241 77.0823 43.1826 77.0244 43.2996C75.518 43.2996 74.0117 43.2996 72.4474 43.2996C71.8101 37.8579 67.5228 35.6929 64.2784 35.927C61.1498 36.1025 57.384 38.5016 56.9784 43.2411C56.457 43.4167 42.1468 43.4752 40.988 43.2996C40.4087 39.2622 38.265 36.5706 34.1516 35.9855C30.7913 35.4589 28.1262 37.0973 26.3302 40.3155Z" fill="black"/>
    <path d="M19.3199 49.7945C15.9017 49.7945 13.1787 47.0444 13.1787 43.6507C13.1787 40.2569 15.9596 37.4483 19.3199 37.4483C22.6802 37.4483 25.4612 40.1984 25.4612 43.5922C25.4612 47.0444 22.6802 49.7945 19.3199 49.7945Z" fill="black"/>
    <path d="M39.54 43.6507C39.54 47.1029 36.817 49.7945 33.4567 49.7945C30.0384 49.7945 27.3154 47.1029 27.3154 43.6507C27.3154 40.2569 30.0384 37.4483 33.3987 37.4483C36.817 37.5068 39.54 40.2569 39.54 43.6507Z" fill="black"/>
    <path d="M64.9156 49.7945C61.4974 49.7945 58.7744 47.1029 58.7744 43.7091C58.7744 40.3154 61.4974 37.5068 64.8577 37.5068C68.218 37.5068 70.999 40.2569 70.999 43.6506C70.999 47.0444 68.3339 49.7945 64.9156 49.7945Z" fill="black"/>
</svg>
