<svg width="80" height="43" viewBox="0 0 80 43" fill="none" xmlns="http://www.w3.org/2000/svg">
    <path d="M4.32567 32.0185C2.88378 31.1707 1.49161 30.3229 0 29.4252C0.149161 29.126 0.198887 28.9265 0.348048 28.6772C1.24301 27.0315 2.13798 25.3359 3.08267 23.6902C3.48043 22.992 3.67931 22.3437 3.53015 21.5458C3.48043 21.2465 3.48042 20.9473 3.48042 20.6481C4.47483 19.9 5.41951 19.152 6.46364 18.4039C6.71224 18.2543 7.06028 18.1546 7.3586 18.1546C9.19825 18.2543 10.9882 18.3541 12.8278 18.4538C15.3139 18.6034 17.7502 18.753 20.2362 18.9525C20.4351 18.9525 20.6837 18.9525 20.982 18.8029C20.1865 18.0548 19.3909 17.3068 18.5457 16.6086C18.3468 16.459 17.9988 16.4091 17.7004 16.4091C16.5071 16.4091 15.3636 16.4091 14.1206 16.4091C14.0211 15.4117 13.9217 14.5141 13.8222 13.5167C13.2753 13.5665 13.0267 13.2673 12.8776 12.7686C12.3306 11.1229 11.6843 9.52707 11.1373 7.88136C11.0379 7.68188 11.0379 7.43253 10.9385 7.13331C13.7228 7.13331 16.4574 7.13331 19.192 7.13331C19.4406 6.28552 19.6892 5.4876 19.9379 4.6398C21.8769 4.73954 23.816 4.88915 25.8048 4.98889C25.954 4.49019 26.1032 4.04136 26.302 3.49279C26.9981 3.49279 27.6445 3.49279 28.3406 3.49279C28.8378 2.54526 29.335 1.6476 29.7825 0.749939C31.473 0.749939 33.1137 0.749939 34.8539 0.749939C35.1025 1.59773 35.3512 2.49539 35.6495 3.44292C36.3953 3.44292 37.1908 3.44292 37.9863 3.44292C38.1852 4.24084 38.3841 4.98889 38.583 5.73695C39.4779 5.78682 40.3729 5.88656 41.3176 5.93643C44.0025 6.08604 46.6377 6.28552 49.3226 6.38526C50.2672 6.43513 50.8639 6.63461 51.2617 7.63201C51.6594 8.72915 52.2561 9.72655 52.803 10.8736C53.3499 10.8736 53.9465 10.8736 54.5432 10.8736C54.8415 11.4221 55.0901 11.9208 55.3884 12.5193C63.4929 12.5691 71.6967 12.6689 79.9006 12.7188C79.9006 13.2673 79.9006 13.7162 79.9006 14.3645C71.8459 14.5141 63.7912 14.6637 55.637 14.8133C55.289 15.5613 54.9907 16.2595 54.6923 16.9577C54.5432 17.0076 54.4935 17.0574 54.4437 17.0574C53.2505 16.8081 52.5047 17.4564 51.908 18.4039C51.5102 19.0024 51.0628 19.551 50.5158 20.1993C50.9633 20.2491 51.2119 20.2491 51.5103 20.2491C54.6924 20.2491 57.8745 20.2491 61.1063 20.2491C61.7029 20.2491 62.2498 20.3489 62.747 20.698C63.8906 21.446 65.0839 22.1442 66.2275 22.8922C66.7247 23.2413 67.2219 23.3909 67.8682 23.4408C71.1995 23.5904 74.5308 23.7899 77.8123 23.8896C78.3592 23.8896 78.7073 24.0393 79.0056 24.538C79.3039 25.0367 79.652 25.4855 80 25.9842C79.9006 26.1338 79.8508 26.2335 79.8011 26.3333C76.5693 30.7717 73.3375 35.2102 70.1056 39.6486C69.161 40.9452 67.918 41.8927 66.3269 42.2418C65.78 42.3416 65.233 42.3914 64.6861 42.3914C46.936 42.3914 29.2355 42.3914 11.4854 42.3914C9.39714 42.3914 7.75637 41.5935 6.46364 39.9977C4.82287 37.953 4.22622 35.5094 4.42511 32.9161C4.42511 32.6668 4.47483 32.4174 4.52455 32.1182C4.37539 32.2678 4.37539 32.2179 4.32567 32.0185ZM15.6122 38.4018C17.5015 41.5935 21.9267 42.3914 24.6613 38.6013C26.7495 41.9925 31.3238 42.2917 33.7104 38.5016C34.7545 40.1473 36.1964 41.1946 38.1852 41.2444C40.2237 41.2444 41.6656 40.247 42.8092 38.5514C43.903 40.2969 45.3947 41.1946 47.3337 41.1447C49.3226 41.1447 50.7645 40.0974 51.8086 38.352C52.9024 40.1473 54.394 41.1447 56.3829 41.1447C58.3717 41.1447 59.8135 40.1473 60.9074 38.4018C61.8024 39.8481 62.9459 40.7956 64.5867 41.0449C66.1778 41.2943 67.6196 40.8953 68.8626 39.8481C70.9509 38.0029 71.1001 34.7613 69.2107 32.7166C68.266 31.7192 67.1224 31.1208 65.78 31.0709C63.642 30.9712 62.1007 32.0185 60.9571 33.8138C59.018 30.5224 54.4935 29.8242 51.8583 33.8138C50.8142 32.1681 49.3723 31.1208 47.3835 31.0709C45.3449 31.0211 43.903 32.1182 42.7595 33.7639C41.6656 32.0683 40.174 31.1208 38.2349 31.1707C36.2461 31.1707 34.8539 32.2678 33.7601 33.9135C31.9204 30.7717 27.4456 29.8741 24.711 33.7141C22.6725 30.3728 18.1479 29.9738 15.6619 33.8138C14.8167 32.4174 13.6731 31.4699 12.082 31.1707C10.4413 30.8715 8.94966 31.3203 7.75637 32.4174C5.66812 34.3125 5.56868 37.554 7.55749 39.5987C8.5519 40.5961 9.74518 41.1447 11.1373 41.1447C13.0267 41.0948 14.5183 40.0974 15.6122 38.4018Z" fill="black"/>
    <path d="M33.1642 36.1577C33.1642 38.352 31.3742 40.1473 29.1865 40.1473C26.9988 40.1473 25.1592 38.352 25.1592 36.1577C25.1592 34.0133 26.9988 32.1681 29.1865 32.1681C31.4239 32.218 33.1642 33.9634 33.1642 36.1577Z" fill="black"/>
    <path d="M42.1622 36.1078C42.1622 38.3021 40.422 40.0974 38.2343 40.1473C36.0466 40.1972 34.207 38.4018 34.1572 36.2076C34.1075 34.0632 35.9472 32.218 38.1349 32.1681C40.3723 32.1681 42.1622 33.9135 42.1622 36.1078Z" fill="black"/>
    <path d="M7.10938 36.0081C7.10938 33.8138 8.89931 32.0684 11.1367 32.1182C13.3741 32.1681 15.1641 33.9634 15.1143 36.1078C15.0646 38.3021 13.2747 40.0476 11.0373 40.0476C8.8496 39.9977 7.10938 38.2522 7.10938 36.0081Z" fill="black"/>
    <path d="M16.1104 36.1078C16.1104 33.8637 17.8506 32.1182 20.088 32.1182C22.3254 32.1182 24.1153 33.8637 24.165 36.058C24.2148 38.2024 22.3751 40.0476 20.1874 40.0476C17.9003 40.0476 16.1104 38.3021 16.1104 36.1078Z" fill="black"/>
    <path d="M43.3066 36.1078C43.3066 33.9135 45.0469 32.1182 47.2843 32.1182C49.5217 32.1182 51.3116 33.8637 51.3116 36.058C51.3116 38.2024 49.5217 40.0476 47.334 40.0476C45.0966 40.0476 43.3066 38.3021 43.3066 36.1078Z" fill="black"/>
    <path d="M56.332 32.1182C58.5694 32.1182 60.3594 33.8138 60.3594 36.058C60.3594 38.2522 58.6192 40.0476 56.3818 40.0476C54.1941 40.0476 52.3544 38.3021 52.3047 36.1078C52.3047 33.9135 54.1443 32.1182 56.332 32.1182Z" fill="black"/>
    <path d="M65.3321 32.1182C67.5695 32.1182 69.3594 33.8138 69.3594 36.058C69.3594 38.2522 67.6192 40.0476 65.3818 40.0476C63.1941 40.0476 61.3544 38.3021 61.3047 36.1078C61.3047 33.9135 63.1444 32.1182 65.3321 32.1182Z" fill="black"/>
</svg>
