<svg width="78" height="61" viewBox="0 0 78 61" fill="none" xmlns="http://www.w3.org/2000/svg">
    <path d="M36.4902 55.2247C35.7517 55.3474 35.0749 55.4702 34.398 55.5929C28.183 56.636 21.9679 57.7405 15.7529 58.7836C11.7531 59.4586 7.75338 60.1336 3.75362 60.8086C3.32288 60.8699 2.89213 60.8699 2.52292 60.5631C1.90757 60.0722 1.16916 59.5813 0.492281 59.0904C0.369211 58.9677 0.184605 58.845 0 58.7223C0.184605 58.6609 0.307676 58.5996 0.492281 58.5996C4.12284 57.8632 7.75339 57.1269 11.3224 56.3906C11.8147 56.2678 12.1839 56.0838 12.4916 55.6542C13.23 54.6111 14.0299 53.568 14.7684 52.5248C15.0145 52.1567 15.3222 51.9726 15.8145 51.8499C19.5065 51.1749 23.1986 50.4386 26.8907 49.7022C27.1984 49.6409 27.383 49.5795 27.5676 49.3341C28.183 48.2909 28.8598 47.2478 29.5367 46.2047C29.5983 46.1433 29.5983 46.0206 29.6598 45.8979C28.9214 45.7751 28.183 45.6524 27.5061 45.5911C26.6446 45.4683 25.7216 45.3456 24.8601 45.2229C24.6755 45.2229 24.4293 45.1615 24.3063 44.9775C23.3832 43.9343 22.5217 42.8298 21.5987 41.664C22.2141 41.2345 22.7064 40.8663 23.3217 40.4981C23.6909 40.2527 23.8755 39.9459 23.8755 39.5163C23.8755 38.9641 23.9986 38.4118 23.9986 37.8596C23.9986 37.4301 24.2447 37.246 24.5524 37.0006C27.2599 35.1597 29.9675 33.3189 32.675 31.4167C34.6441 30.0668 36.6132 28.7169 38.6439 27.3056C39.0131 27.0601 39.3208 26.9374 39.7515 27.1215C40.2438 27.3055 40.7976 27.3669 41.2899 27.551C41.7822 27.7351 42.0898 27.551 42.459 27.2442C45.9665 24.4216 49.474 21.599 52.9815 18.7764C58.335 14.4812 63.7501 10.1245 69.1036 5.82928C69.2267 5.76791 69.3498 5.64519 69.4728 5.52247C69.3498 5.03159 69.2882 4.47933 69.1652 3.92709C70.8881 2.63851 72.5496 1.28858 74.3341 0C75.0725 0.368165 75.7494 0.736322 76.4878 1.10449C76.6109 1.16585 76.734 1.34993 76.7955 1.47266C77.0416 2.20898 77.2262 3.00667 77.4108 3.86572C75.7494 5.21566 74.0879 6.56561 72.365 7.9769C71.9342 7.73146 71.565 7.54737 71.1343 7.24057C62.0887 15.1561 52.9815 23.0717 43.8743 30.9872C44.1205 31.7235 44.3051 32.5212 44.5512 33.2575C43.9974 33.7484 43.3821 34.2393 42.8282 34.7916C47.4434 38.9641 51.9969 43.1366 56.6121 47.2478C55.9967 48.475 55.4429 49.7022 54.8275 50.9295C54.1507 52.4021 54.1507 52.4021 52.5508 52.5862C52.4892 52.5862 52.4277 52.5862 52.3661 52.5248C51.9354 49.825 50.6432 47.7387 48.1202 46.3888C46.3973 45.4684 44.4897 45.2843 42.5821 45.7138C38.8285 46.5728 35.5056 50.009 36.4902 55.2247Z" fill="black"/>
    <path d="M44.1623 59.5199C40.7163 59.5199 37.9473 56.6973 37.9473 53.3225C38.0088 49.9476 40.7779 47.1864 44.2238 47.1864C47.6698 47.1864 50.4388 50.009 50.4388 53.4452C50.4388 56.82 47.6082 59.5813 44.1623 59.5199Z" fill="black"/>
</svg>
