<svg width="291" height="33" viewBox="0 0 291 33" fill="none" xmlns="http://www.w3.org/2000/svg">
    <path d="M9.06 3.33C11.38 3.33 13.15 3.82 14.37 4.8C15.59 5.78 16.2 7.21 16.2 9.09C16.2 11.03 15.59 12.5 14.37 13.5C13.15 14.5 11.38 15 9.06 15H7.23V17.97H10.26V21H1.23V17.97H3.75V6.36H1.23V3.33H9.06ZM9.03 12.27C11.39 12.27 12.57 11.24 12.57 9.18C12.57 8.22 12.28 7.51 11.7 7.05C11.12 6.59 10.23 6.36 9.03 6.36H7.26V12.27H9.03ZM23.1171 8.73C24.7971 7.63 26.3771 7.08 27.8571 7.08C28.5971 7.08 29.3071 7.21 29.9871 7.47L30.4971 11.19L27.6771 11.79L27.3771 10.17C26.0371 10.25 24.9371 10.61 24.0771 11.25L24.0471 18.27H26.9871V21H18.1371V18.27H20.6571V10.95L17.7771 9.99L18.6771 7.26L23.1171 8.73ZM39.1296 7.02C41.3696 7.02 43.1096 7.67 44.3496 8.97C45.6096 10.25 46.2396 12.03 46.2396 14.31C46.2396 16.59 45.6096 18.37 44.3496 19.65C43.1096 20.93 41.3696 21.57 39.1296 21.57C36.9296 21.57 35.2096 20.93 33.9696 19.65C32.7496 18.37 32.1396 16.59 32.1396 14.31C32.1396 12.03 32.7496 10.25 33.9696 8.97C35.2096 7.67 36.9296 7.02 39.1296 7.02ZM39.1596 9.81C37.9596 9.81 37.0496 10.2 36.4296 10.98C35.8096 11.74 35.4996 12.85 35.4996 14.31C35.4996 15.79 35.8096 16.92 36.4296 17.7C37.0496 18.46 37.9596 18.84 39.1596 18.84C40.3796 18.84 41.2996 18.46 41.9196 17.7C42.5396 16.92 42.8496 15.79 42.8496 14.31C42.8496 12.85 42.5296 11.74 41.8896 10.98C41.2696 10.2 40.3596 9.81 39.1596 9.81ZM54.9764 21.57C53.4364 21.57 52.2364 21.13 51.3764 20.25C50.5364 19.35 50.1164 17.98 50.1164 16.14V10.29H47.6264V7.59H50.1164V5.01L53.4164 4.02V7.59H57.0464V10.29H53.4164V15.18C53.4164 17.6 54.0864 18.81 55.4264 18.81C55.9664 18.81 56.6364 18.61 57.4364 18.21L58.0664 20.73C56.9064 21.29 55.8764 21.57 54.9764 21.57ZM72.2571 19.35C70.5171 20.83 68.6271 21.57 66.5871 21.57C65.0871 21.57 63.7671 21.27 62.6271 20.67C61.5071 20.05 60.6371 19.2 60.0171 18.12C59.3971 17.02 59.0871 15.76 59.0871 14.34C59.0871 12.9 59.3771 11.63 59.9571 10.53C60.5371 9.41 61.3571 8.55 62.4171 7.95C63.4771 7.33 64.6871 7.02 66.0471 7.02C67.4071 7.02 68.5971 7.3 69.6171 7.86C70.6571 8.42 71.4571 9.21 72.0171 10.23C72.5771 11.25 72.8571 12.43 72.8571 13.77C72.8571 14.29 72.8071 14.85 72.7071 15.45H62.3871C62.4671 16.57 62.8971 17.42 63.6771 18C64.4771 18.58 65.4471 18.87 66.5871 18.87C68.2471 18.87 69.7371 18.35 71.0571 17.31L72.2571 19.35ZM69.4671 13.11C69.4471 12.11 69.1371 11.31 68.5371 10.71C67.9371 10.09 67.1371 9.78 66.1371 9.78C65.1571 9.78 64.3171 10.09 63.6171 10.71C62.9171 11.33 62.5271 12.13 62.4471 13.11H69.4671ZM84.1816 9.93C83.4616 9.73 82.7816 9.63 82.1416 9.63C80.9016 9.63 79.9516 10.03 79.2916 10.83C78.6516 11.63 78.3316 12.82 78.3316 14.4C78.3316 15.76 78.6816 16.84 79.3816 17.64C80.0816 18.42 80.9716 18.81 82.0516 18.81C83.4116 18.81 84.7816 18.32 86.1616 17.34L87.5416 19.38C86.5616 20.14 85.6616 20.69 84.8416 21.03C84.0216 21.39 83.0616 21.57 81.9616 21.57C79.7616 21.57 78.0216 20.95 76.7416 19.71C75.4816 18.47 74.8516 16.7 74.8516 14.4C74.8516 12 75.4816 10.17 76.7416 8.91C78.0216 7.63 79.8116 6.99 82.1116 6.99C83.5116 6.99 85.0516 7.28 86.7316 7.86L87.4816 11.73L84.6016 12.36L84.1816 9.93ZM96.7538 21.57C95.2138 21.57 94.0138 21.13 93.1538 20.25C92.3138 19.35 91.8938 17.98 91.8938 16.14V10.29H89.4038V7.59H91.8938V5.01L95.1938 4.02V7.59H98.8238V10.29H95.1938V15.18C95.1938 17.6 95.8638 18.81 97.2038 18.81C97.7438 18.81 98.4138 18.61 99.2138 18.21L99.8438 20.73C98.6838 21.29 97.6538 21.57 96.7538 21.57ZM125.033 14.61C125.033 16.87 124.453 18.6 123.293 19.8C122.133 21 120.413 21.6 118.133 21.6C115.833 21.6 114.103 21 112.943 19.8C111.783 18.6 111.203 16.87 111.203 14.61V6.36H108.653V3.33H116.423V6.36H114.683V15.21C114.683 16.43 114.973 17.32 115.553 17.88C116.133 18.44 116.993 18.72 118.133 18.72C120.413 18.72 121.553 17.45 121.553 14.91V6.36H119.843V3.33H127.613V6.36H125.033V14.61ZM129.757 0.839998L135.127 2.67V12.99H137.317L138.907 10.29H137.377V7.59H144.607V10.29H142.327L139.747 14.25L142.447 18.27H144.937V21H140.737L137.407 15.69H135.127V18.27H136.147V21H129.187V18.27H131.707V4.56L128.857 3.6L129.757 0.839998ZM152.375 8.73C154.055 7.63 155.635 7.08 157.115 7.08C157.855 7.08 158.565 7.21 159.245 7.47L159.755 11.19L156.935 11.79L156.635 10.17C155.295 10.25 154.195 10.61 153.335 11.25L153.305 18.27H156.245V21H147.395V18.27H149.915V10.95L147.035 9.99L147.935 7.26L152.375 8.73ZM171.295 20.4C169.855 21.18 168.425 21.57 167.005 21.57C165.145 21.57 163.725 21.21 162.745 20.49C161.785 19.75 161.305 18.68 161.305 17.28C161.305 15.92 161.765 14.9 162.685 14.22C163.625 13.52 164.995 13.17 166.795 13.17H170.155C170.155 12.01 169.915 11.13 169.435 10.53C168.955 9.93 168.295 9.63 167.455 9.63C166.615 9.63 165.815 9.75 165.055 9.99L164.785 11.46L161.965 11.07L162.505 7.89C164.125 7.31 165.805 7.02 167.545 7.02C169.505 7.02 170.995 7.54 172.015 8.58C173.055 9.62 173.575 11.13 173.575 13.11V18.09L176.095 18.9L175.165 21.72L171.295 20.4ZM166.885 15.39C166.205 15.39 165.685 15.56 165.325 15.9C164.965 16.22 164.785 16.69 164.785 17.31C164.785 18.45 165.565 19.02 167.125 19.02C168.225 19.02 169.235 18.73 170.155 18.15V15.42L166.885 15.39ZM177.919 7.59H183.859V18.27H186.349V21H177.919V18.27H180.409V10.29H177.919V7.59ZM181.819 1.08C182.439 1.08 182.939 1.27 183.319 1.65C183.699 2.03 183.889 2.53 183.889 3.15C183.889 3.77 183.699 4.27 183.319 4.65C182.939 5.03 182.439 5.22 181.819 5.22C181.199 5.22 180.699 5.03 180.319 4.65C179.959 4.27 179.779 3.77 179.779 3.15C179.779 2.53 179.959 2.03 180.319 1.65C180.699 1.27 181.199 1.08 181.819 1.08ZM188.411 18.27H190.961V10.98L188.081 9.99L188.951 7.26L193.121 8.7C193.961 8.14 194.781 7.72 195.581 7.44C196.381 7.16 197.301 7.02 198.341 7.02C200.101 7.02 201.421 7.53 202.301 8.55C203.181 9.57 203.621 10.93 203.621 12.63V18.27H206.111V21H198.971V18.27H200.231V13.08C200.231 11.02 199.331 9.99 197.531 9.99C196.971 9.99 196.411 10.09 195.851 10.29C195.291 10.47 194.791 10.71 194.351 11.01V18.27H195.581V21H188.411V18.27ZM220.616 19.35C218.876 20.83 216.986 21.57 214.946 21.57C213.446 21.57 212.126 21.27 210.986 20.67C209.866 20.05 208.996 19.2 208.376 18.12C207.756 17.02 207.446 15.76 207.446 14.34C207.446 12.9 207.736 11.63 208.316 10.53C208.896 9.41 209.716 8.55 210.776 7.95C211.836 7.33 213.046 7.02 214.406 7.02C215.766 7.02 216.956 7.3 217.976 7.86C219.016 8.42 219.816 9.21 220.376 10.23C220.936 11.25 221.216 12.43 221.216 13.77C221.216 14.29 221.166 14.85 221.066 15.45H210.746C210.826 16.57 211.256 17.42 212.036 18C212.836 18.58 213.806 18.87 214.946 18.87C216.606 18.87 218.096 18.35 219.416 17.31L220.616 19.35ZM217.826 13.11C217.806 12.11 217.496 11.31 216.896 10.71C216.296 10.09 215.496 9.78 214.496 9.78C213.516 9.78 212.676 10.09 211.976 10.71C211.276 11.33 210.886 12.13 210.806 13.11H217.826ZM230.479 3.33H238.249L244.639 16.02V6.36H242.329V3.33H250.579V6.36H247.759V21H243.739L236.149 6.33L236.179 17.97H238.699V21H230.449V17.97H233.059V6.36H230.479V3.33ZM259.413 7.02C261.653 7.02 263.393 7.67 264.633 8.97C265.893 10.25 266.523 12.03 266.523 14.31C266.523 16.59 265.893 18.37 264.633 19.65C263.393 20.93 261.653 21.57 259.413 21.57C257.213 21.57 255.493 20.93 254.253 19.65C253.033 18.37 252.423 16.59 252.423 14.31C252.423 12.03 253.033 10.25 254.253 8.97C255.493 7.67 257.213 7.02 259.413 7.02ZM259.443 9.81C258.243 9.81 257.333 10.2 256.713 10.98C256.093 11.74 255.783 12.85 255.783 14.31C255.783 15.79 256.093 16.92 256.713 17.7C257.333 18.46 258.243 18.84 259.443 18.84C260.663 18.84 261.583 18.46 262.203 17.7C262.823 16.92 263.133 15.79 263.133 14.31C263.133 12.85 262.813 11.74 262.173 10.98C261.553 10.2 260.643 9.81 259.443 9.81ZM272.447 21L268.907 10.29H266.957V7.59H274.187V10.29H272.477L273.707 14.91L274.577 18.12L275.387 14.91L277.037 9.54H280.457L282.137 14.97L282.947 18.15L283.757 15L285.167 10.29H283.337V7.59H290.387V10.29H288.467L284.597 21H280.997L278.717 13.17L276.197 21H272.447Z" fill="black"/>
    <rect y="30" width="146" height="3" fill="#056EFF"/>
    <rect x="146" y="30" width="145" height="3" fill="#FEF300"/>
</svg>
