<svg xmlns="http://www.w3.org/2000/svg" viewBox="0 0 173.3 200" style="enable-background:new 0 0 173.3 200" xml:space="preserve"><path d="M43.325 25.085.433 49.861v100.146l3.781 2.213 3.781 2.214 23.756-15.43c13.066-8.486 23.801-15.383 23.857-15.328.056.056.409 1.853.786 3.995.376 2.141.767 3.893.868 3.893.27 0 20.508-29.917 20.347-30.078-.139-.139-35.717 6.141-35.916 6.34-.059.06 1.469 1.155 3.396 2.435l3.503 2.327-3.572 2.32c-1.965 1.277-9.291 6.031-16.281 10.566L16.03 133.72l-.073-37.311c-.04-20.521.025-37.404.144-37.516.297-.278 69.714-40.33 70.263-40.539.262-.1 14.436 7.918 35.671 20.178l35.235 20.343V140.996l-29.75 17.179a74835.846 74835.846 0 0 1-35.309 20.379l-5.559 3.2-5.485-3.144c-3.017-1.729-5.486-3.223-5.489-3.32-.004-.183 26.263-17.199 26.968-17.469.383-.147.66.981 1.53 6.236.092.556.248 1.161.346 1.344.099.183 4.815-6.511 10.479-14.875 5.664-8.364 10.278-15.225 10.253-15.247-.07-.06-35.519 6.265-35.986 6.422-.247.083.914 1.02 2.889 2.33 1.816 1.205 3.4 2.279 3.52 2.386.119.108-10.495 7.143-23.587 15.633-13.092 8.491-23.718 15.525-23.613 15.631.477.481 37.516 21.72 38.029 21.806.36.061 16.699-9.22 43.469-24.692l42.892-24.789V49.867l-42.892-24.779C106.385 11.46 86.888.309 86.65.309c-.238 0-19.735 11.149-43.325 24.776m80.788 70.8c-9.816 1.713-17.907 3.174-17.98 3.246-.072.072 1.364 1.152 3.19 2.4 1.827 1.248 3.32 2.342 3.318 2.431-.002.089-20.154 13.085-44.782 28.878-35.676 22.88-44.702 28.787-44.404 29.066.206.192 2.883 1.925 5.95 3.851 4.305 2.704 5.688 3.442 6.065 3.237.27-.145 19.333-12.356 42.363-27.135 23.03-14.779 41.925-26.819 41.989-26.755.063.064.428 1.901.81 4.083.381 2.182.722 3.993.758 4.025.035.031 3.727-5.29 8.203-11.826 4.476-6.536 9.19-13.41 10.475-15.277 1.285-1.866 2.236-3.381 2.115-3.366-.122.015-8.253 1.428-18.07 3.142" fill-rule="evenodd"/></svg>