<svg version="1.1" id="Layer_1" xmlns="http://www.w3.org/2000/svg" x="0" y="0" viewBox="0 0 200 200" style="enable-background:new 0 0 200 200" xml:space="preserve">
    <style>
        .st1{fill:#fed500}
    </style>
    <switch>
        <g>
            <path style="fill:#245eac" d="M0 0h200v200H0z"/>
            <path class="st1" d="m120.75 114.17 12.72-18.54-22.15 3.83 4.31 2.94-53.89 34.58 7.36 4.62 50.78-32.58z"/>
            <path class="st1" d="M100 40.14 48.16 70.07v59.86l4.72 2.76 1-.65 2.56-1.65 5.38-3.49h-.01l19.58-12.72.91 5.15 12.61-18.61-22.13 3.95 4.33 2.92-19.51 12.67V75.52L100 51.04l42.4 24.48v48.96L100 148.96l-6.64-3.83 16.41-10.6.91 5.14 12.61-18.6-22.13 3.95 4.33 2.92L76.9 146.5h.02l-.02.02 23.1 13.34 51.84-29.93V70.07z"/>
        </g>
    </switch>
</svg>
